<ttFont>
          <CharString index="0">
            30.990005493164062 70.97999572753906 117 342 202.02000427246094 627.0200042724609 -37 callsubr
            -30 callgsubr
            rcurveline
            106 -420 -106 vlineto
            216 callsubr
            -181 -604.0200042724609 -80 -291 -89 290.02000427246094 -192.99000549316406 604 157 5 callgsubr
            -508.99000549316406 -106 vlineto
            94.99000549316406 -46 callgsubr
            373.99000549316406 -1004.9900054931641 rlineto
            113.00999450683594 hlineto
            -281 -104 -106 67 callgsubr
            -104 hhcurveto
            -42 -60 78 callgsubr
            169 callsubr
            -17 hvcurveto
            return
          </CharString>
          <CharString index="1">
            108.99000549316406 return
          </CharString>
          <CharString index="2">
            rmoveto
            1 -103 callsubr
            rlineto
            491.99000549316406 -106 callsubr
            hlineto
            -171 24 91 291.97999572753906 rlineto
            588 hlineto
            95.00999450683594 -291.97999572753906 -163 -39 callgsubr
            549 -99 callsubr
            -127.02000427246094 24 -496.99000549316406 1401 rlineto
            -238 hlineto
            -493 -1401 -126.99000549316406 -24 rlineto
            452.9700012207031 443 rmoveto
            return
          </CharString>
          <CharString index="3">
            -214 105 -137 68 159 362 callsubr
            87.02000427246094 76 146 callgsubr
            100 88 -30 -46 callgsubr
            24 vhcurveto
            46 -243.02000427246094 rlineto
            134 hlineto
            12.990005493164062 343.02000427246094 rlineto
            9 -51 callgsubr
            -147 64 -194.99000549316406 hhcurveto
            -306.02000427246094 -192 -166 -228 -269 240 -126 164 17 callsubr
            hvcurveto
            209 -94 140 -73 -160.99000549316406 vvcurveto
            -154 -97 -97 -203.02000427246094 97 callgsubr
            0 callgsubr
            41 46 328 callsubr
            -40 256 rlineto
            -139.02000427246094 hlineto
            -17 -370.00999450683594 return
          </CharString>
          <CharString index="4">
            -108.99000549316406 return
          </CharString>
          <CharString index="5">
            rmoveto
            -5.9799957275390625 65 166 -87 238 hhcurveto
            370 176 102 callsubr
            210 258 callsubr
            -228 113.00999450683594 -192 95 hvcurveto
            -104 callsubr
            rlineto
            return
          </CharString>
          <CharString index="6">
            43.99000549316406 305.99000549316406 150 callsubr
            19 -87 -211 rlineto
            -34 -32 -51 callgsubr
            -40 -138.02000427246094 hhcurveto
            -324 159 callgsubr
            335 355 411.00999450683594 181.99000549316406 221 254.02000427246094 144 83 -92 callsubr
            -35 362 callgsubr
            56 -255 rlineto
            149 hlineto
            19 374 rlineto
            -67 callsubr
            -76 -184.02000427246094 48 -181.99000549316406 hhcurveto
            -417.02000427246094 -325 -292.99000549316406 -483 return
          </CharString>
          <CharString index="7">
            98.02000427246094 -122 650 vlineto
            291 -98 110 -289.00999450683594 -192.99000549316406 -224 -115 -42 -46 vhcurveto
            50 -104 rlineto
            1 hlineto
            36.99000549316406 73.02000427246094 133 58 150 hhcurveto
            176 47 -70.97999572753906 -181 hvcurveto
            return
          </CharString>
          <CharString index="8">
            -106 callsubr
            vlineto
            return
          </CharString>
          <CharString index="9">
            2 -897 rlineto
            -211.99000549316406 105 callgsubr
            -115 -43 vhcurveto
            -39 10 callgsubr
            -50 -9.009994506835938 -19.979995727539062 3 11 0 callgsubr
            rcurveline
            -67 callsubr
            -7 81 -4 23 3 rrcurveto
            183 -17 callsubr
            168 156 339.99000549316406 vvcurveto
            1107 vlineto
            -50 231 callsubr
            return
          </CharString>
          <CharString index="10">
            rmoveto
            -273 -269 -213 -382 -336 158 -259.97999572753906 359 275 268 208.99000549316406 385.99000549316406 336 -158 260.00999450683594 -360 hvcurveto
            return
          </CharString>
          <CharString index="11">
            97 callsubr
            -149 338 357.99000549316406 418.02000427246094 205 248 callsubr
            287.99000549316406 174.02000427246094 69.97999572753906 3 callgsubr
            187 callgsubr
          </CharString>
          <CharString index="12">
            -94 callgsubr
            497.99000549316406 -99 callsubr
            -138 17 rlineto
            775.9900054931641 vlineto
            54 230 callsubr
            68 callsubr
            52 13 callgsubr
            hhcurveto
            170.99000549316406 30 -100.99000549316406 -215 hvcurveto
            -566 vlineto
            -128 177 callsubr
            502 61 callgsubr
            -66.00999450683594 141 -262 -150 -177 171 callsubr
            -78.99000549316406 -88 vhcurveto
            1 46 rlineto
            81 vlineto
            -47 231 callsubr
            -296 -40 88 callsubr
            143 -40 391 callgsubr
            279 callsubr
            return
          </CharString>
          <CharString index="13">
            -52 vlineto
            -472 vmoveto
            -51 -66.00999450683594 -101 -40 -62 hhcurveto
            -110 -82 55.99000549316406 147 132 113.00999450683594 0 callsubr
            308 1 hvcurveto
            -359 vlineto
            endchar
          </CharString>
          <CharString index="14">
            160 callsubr
            -775.9900054931641 vlineto
            -320 -120.00999450683594 -186 -239 -222.99000549316406 -152 172 callgsubr
            387.00999450683594 vhcurveto
            764.9900054931641 vlineto
            return
          </CharString>
          <CharString index="15">
            -26.009994506835938 return
          </CharString>
          <CharString index="16">
            -90 callgsubr
            endchar
          </CharString>
          <CharString index="17">
            108.99000549316406 -94 callgsubr
            return
          </CharString>
          <CharString index="18">
            -728 -21 callgsubr
            188 299 hstemhm
            340 callgsubr
            198 callsubr
            -247.00999450683594 229 hintmask 00000000
            hintmask 11110000
            340 callgsubr
            1489 rmoveto
            -77 53 -60 78 vhcurveto
            1 hlineto
            105 51 60 callsubr
            -25 callgsubr
            -99 229 callgsubr
            -77 -85 hvcurveto
            -121 -1380 -54 callsubr
          </CharString>
          <CharString index="19">
            -97 callsubr
            265 return
          </CharString>
          <CharString index="20">
            70 88.99000549316406 70 -46 -60 callsubr
            return
          </CharString>
          <CharString index="21">
            rmoveto
            362 222 284.97999572753906 347.00999450683594 395 -213 164 -233 -163 -117 -83 -73.99000549316406 103 callsubr
            hvcurveto
            0 callsubr
            vlineto
            -45 39 494 callgsubr
            -295 -40 88 callsubr
            143 -40 rlineto
            -1328.979995727539 vlineto
            -149 -23 544 callsubr
            581 108.02000427246094 vlineto
            529 callsubr
            22 rlineto
            198 vlineto
            -6 169.97999572753906 rlineto
            378 callgsubr
            46.97999572753906 308 callsubr
            -12 63 hhcurveto
            -184 940.9900054931641 rmoveto
            43.99000549316406 40.97999572753906 85.02000427246094 53 103 hhcurveto
            165 133 -130 -309.97999572753906 -4 hvcurveto
            -347.02000427246094 219 callsubr
            -145 159 callgsubr
            -182.99000549316406 hhcurveto
            -94 400 callgsubr
            188 callgsubr
            31 258 callgsubr
            hvcurveto
            764.0099945068359 vlineto
            endchar
          </CharString>
          <CharString index="22">
            -79 callsubr
            575 -99 callsubr
            -170 24 rlineto
            308 callgsubr
            vlineto
            387 callgsubr
            -562.0099945068359 -32 callsubr
            170 -58 callgsubr
            return
          </CharString>
          <CharString index="23">
            4 0 -82 callsubr
            return
          </CharString>
          <CharString index="24">
            rmoveto
            131 callsubr
            1142 vlineto
            75 360 -132.02000427246094 18 callgsubr
            -125.99000549316406 -252 -556 -23 rlineto
            597.0099945068359 vlineto
            324 -5 30 -171 rlineto
            127 468.00999450683594 -127 hlineto
            -30 -165 -324 -6 rlineto
            514 callsubr
            vlineto
            479.99000549316406 -12 366 callsubr
            -194.99000549316406 rlineto
            127 hlineto
            -31 320 rlineto
            -1427 -109 hlineto
            264 -25 -553.9799957275391 -1256 -148 -92 callsubr
            499 callgsubr
            502.99000549316406 -56 callsubr
            vlineto
            -152 24 122 304 rlineto
            517.0200042724609 -304 hlineto
            -170 -23 rlineto
            -294.00999450683594 457.00999450683594 rmoveto
            232 576 107 260 rlineto
            125.00999450683594 -836 -464.02000427246094 hlineto
            endchar
          </CharString>
          <CharString index="25">
            -106 callsubr
            315.989990234375 127.00999450683594 825.0000152587891 179 callgsubr
            -40.95001220703125 -78 callgsubr
            return
          </CharString>
          <CharString index="26">
            19 callgsubr
            hintmask 00000000
            hintmask 10110000
            111.97999572753906 108.99000549316406 -69 callsubr
          </CharString>
          <CharString index="27">
            -265 -23 132.99000549316406 -132.99000549316406 145 callsubr
            449.989990234375 113 303.99000549316406 166 return
          </CharString>
          <CharString index="28">
            187 -91 callgsubr
            110 -578 -32 callsubr
            161 157 callsubr
            -168 -39 callsubr
            577.9900054931641 -99 callsubr
            -180 -30 callgsubr
            rlineto
            70 vlineto
            610 740 125.00999450683594 199 rlineto
            -1009.9900054931641 vlineto
            -174 -39 callgsubr
            return
          </CharString>
          <CharString index="29">
            100 -120 1023 vlineto
            -53 27.020004272460938 rlineto
            -2 hlineto
            -316 -29 216 callgsubr
            319 callgsubr
            -38.99000549316406 rlineto
            return
          </CharString>
          <CharString index="30">
            107.99000549316406 return
          </CharString>
          <CharString index="31">
            -84 callsubr
            153 295.99000549316406 356 callgsubr
            -136 280 219.989990234375 280 hintmask 11011011
            322.99000549316406 457 callsubr
            160 callgsubr
            vhcurveto
            123 callsubr
            -63 callsubr
            -97 -49 -75 -85.00999450683594 hvcurveto
            hintmask 11011101
            -856.9799957275391 -1714 -105 callsubr
            hintmask 11101011
            -75 callgsubr
            hintmask 11011101
            -507 hlineto
            endchar
          </CharString>
          <CharString index="32">
            -94 callgsubr
            551 108.99000549316406 vlineto
            -88 callgsubr
            372 callgsubr
            return
          </CharString>
          <CharString index="33">
            0 -56 callsubr
            -105.97999572753906 576 callgsubr
            return
          </CharString>
          <CharString index="34">
            462.99000549316406 -134 23 -122 -334.00999450683594 -505 69 callgsubr
            rlineto
            62 callsubr
            193 -96 callgsubr
            -595 -32 callsubr
            -4 callsubr
            521 callsubr
            return
          </CharString>
          <CharString index="35">
            -94 callgsubr
            1135 vlineto
            59 358.99000549316406 -128 18 callgsubr
            -113 -251 return
          </CharString>
          <CharString index="36">
            313.02000427246094 1020.9799957275391 0 callsubr
            5 callgsubr
            -433.00999450683594 -106 vlineto
            155.02000427246094 198 callgsubr
            -160 -590.0099945068359 -28 callgsubr
            -251 -55 254.02000427246094 -206 720 rlineto
            -212.99000549316406 hlineto
            -201 -721 rlineto
            return
          </CharString>
          <CharString index="37">
            -94 callgsubr
            599 -99 callsubr
            -197 22 rlineto
            538 vlineto
            -2 29 417 callsubr
            76 hhcurveto
            158 callsubr
            151 152 -576 104 hhcurveto
            296 -77 callsubr
            hlineto
            -77.99000549316406 24 -104 25 -135 450.99000549316406 -174 99 rlinecurve
            192 59 169 callgsubr
            186 146 callgsubr
            vvcurveto
            269 -146.99000549316406 133 -408 vhcurveto
            return
          </CharString>
          <CharString index="38">
            rmoveto
            hintmask 01110000
            118 callgsubr
            hintmask 10110000
            -56 callsubr
            vlineto
            hintmask 01110000
            -101 callgsubr
            hintmask 10110000
            310 callsubr
          </CharString>
          <CharString index="39">
            -67 callgsubr
            vlineto
            return
          </CharString>
          <CharString index="40">
            13.990005493164062 return
          </CharString>
          <CharString index="41">
            -94 callgsubr
            572 -99 callsubr
            248 callgsubr
            24 rlineto
            581 699.9900054931641 -582 vlineto
            -163 196 callsubr
            558 437 callgsubr
            23 rlineto
            1253.990005493164 vlineto
            109 callgsubr
            -79 callgsubr
            -559 316 callgsubr
            rlineto
            -540 -699.9900054931641 540 496 callsubr
            -79 callgsubr
            -566 -32 callsubr
            159 -68 callsubr
            -165 -24 rlineto
            endchar
          </CharString>
          <CharString index="42">
            234 callgsubr
            218 callsubr
            155.02000427246094 249 callgsubr
            77.97999572753906 63 callgsubr
            71 vhcurveto
            -53 vlineto
            -88.97999572753906 36 -14 71 83 81 145 callgsubr
            -67 callsubr
            55.99000549316406 vhcurveto
            return
          </CharString>
          <CharString index="43">
            25.990005493164062 return
          </CharString>
          <CharString index="44">
            hlineto
            105 49 -23 callgsubr
            76.99000549316406 246 callgsubr
            return
          </CharString>
          <CharString index="45">
            520 0 163 -163 403.97999572753906 979.010009765625 360 callgsubr
            276.99000549316406 214.99000549316406 927.9999847412109 219 hintmask 10111000
            1087 231 callgsubr
            rmoveto
            -145.97999572753906 670 vlineto
            hintmask 01111000
            56 403.99000549316406 rlineto
            -135 hlineto
            hintmask 10111000
            -72 -231 -354 222 callgsubr
            186 260 callgsubr
            195 334.99000549316406 6 276.00999450683594 rlinecurve
            417 7 -264 222 -409.00999450683594 hhcurveto
            -351.99000549316406 -335.00999450683594 -181 -469 103 callgsubr
            hvcurveto
            -5 -308.02000427246094 244 -327.99000549316406 174 -98 -368 -67 callsubr
            rcurveline
            hintmask 01111000
            103 callsubr
            234 rlineto
            -133 hlineto
            hintmask 10111000
            268 callgsubr
            -403.99000549316406 rlineto
            687 231 callgsubr
            hlineto
            -158 114 callsubr
            -202 292 313 vvcurveto
            375.00999450683594 180 166.99000549316406 299.00999450683594 275.99000549316406 173 -174 -338 -312.00999450683594 159 callgsubr
            -291 -196 -122 vhcurveto
            endchar
          </CharString>
          <CharString index="46">
            106 callsubr
            hintmask 11101000
            551 -56 callgsubr
            return
          </CharString>
          <CharString index="47">
            68.02000427246094 return
          </CharString>
          <CharString index="48">
            -586 -74 callsubr
            165 183 callgsubr
            -64 callsubr
            280 -11 2 callgsubr
            -5.0000152587890625 280 hintmask 00000000
            hintmask 10111010
            -64 callsubr
            393 callgsubr
            160 callgsubr
            vhcurveto
            0.9900054931640625 -63 callsubr
            282 callsubr
            -49 -42 callsubr
            -414 -1714 rmoveto
            hintmask 01111000
            -103 callsubr
            vlineto
            hintmask 01110100
            605 hlineto
            hintmask 10110100
            -56 callsubr
            vlineto
            hintmask 01110100
            -101 callgsubr
            hintmask 10111010
            310 callsubr
          </CharString>
          <CharString index="49">
            -0.9900054931640625 return
          </CharString>
          <CharString index="50">
            -163.99000549316406 -133.02000427246094 -13 callsubr
            313.02000427246094 381 callgsubr
            hvcurveto
            303 callgsubr
            5 143 129 182 hhcurveto
            18 callsubr
            260 callsubr
            -29 221 callgsubr
            -17 callsubr
            hvcurveto
            return
          </CharString>
          <CharString index="51">
            105.97999572753906 return
          </CharString>
          <CharString index="52">
            95 -34 callgsubr
            -46 callsubr
            1281.979995727539 49 callsubr
            return
          </CharString>
          <CharString index="53">
            -61 callsubr
            hintmask 11110000
            390 callsubr
          </CharString>
          <CharString index="54">
            -85 141 callgsubr
            443.49000549316406 -18 callgsubr
            738.9999847412109 443 callsubr
            -54.959991455078125 -78 callgsubr
            257 callsubr
            234 466 callsubr
            252 hintmask 11101100
            98 108.99000549316406 129 callgsubr
            344 250 196 338 353 callsubr
            hvcurveto
            hintmask 11011100
            -174 -53 115 callgsubr
            -126.02000427246094 hhcurveto
            -246.99000549316406 -111 hlineto
            157 -92 callsubr
            rlineto
            -1252.990005493164 vlineto
            hintmask 11101100
            -168 -23 rlineto
            363 callsubr
            572.9900054931641 rmoveto
            -94 -52 2 7 108 callsubr
            hvcurveto
            717 vlineto
            123 callsubr
            46.97999572753906 40.02000427246094 12 92 hhcurveto
            233 68 callsubr
            -90.99000549316406 -234 -322 280 callgsubr
            -92 -177 hvcurveto
            endchar
          </CharString>
          <CharString index="55">
            -106 -23 130 callgsubr
            -135.99000549316406 151.97999572753906 993.0500030517578 -78 callgsubr
            return
          </CharString>
          <CharString index="56">
            -87 callsubr
            -87 hvcurveto
            -1 hlineto
            -98 return
          </CharString>
          <CharString index="57">
            176 269 callgsubr
            54 13 callgsubr
            104 vvcurveto
            133 -129 94.99000549316406 490 callsubr
            -52.99000549316406 -64 -64 vhcurveto
            60 -95 rlineto
            47 58 98 30 266 callgsubr
            hhcurveto
            130 41 -49 -81 -86 -66.00999450683594 -58 -82 -39 hvcurveto
            -53.99000549316406 -46 callgsubr
            238 callgsubr
            -18 -34 -7 34 -105 rcurveline
            11 147 callgsubr
            13 callgsubr
            188 callgsubr
            -6 callgsubr
            4 rrcurveto
            return
          </CharString>
          <CharString index="58">
            -84.00999450683594 return
          </CharString>
          <CharString index="59">
            -2.9900054931640625 return
          </CharString>
          <CharString index="60">
            -45 callsubr
            endchar
          </CharString>
          <CharString index="61">
            118.99000549316406 return
          </CharString>
          <CharString index="62">
            -94 callgsubr
            785 -99 callsubr
            -283 24 rlineto
            512 callgsubr
            vlineto
            320 -10 75.99000549316406 -418 rlineto
            143 hlineto
            -32 547 rlineto
            -1265.990005493164 hlineto
            -35 -547 rlineto
            145 hlineto
            75 418 333 10 rlineto
            -1269.990005493164 559 callsubr
            return
          </CharString>
          <CharString index="63">
            -30 callsubr
            1005.5299835205078 -78 callgsubr
            return
          </CharString>
          <CharString index="64">
            192 callsubr
            188 299 hstemhm
            170 callgsubr
            198 callsubr
            -244.00999450683594 143 callsubr
            hintmask 00000000
            hintmask 11110000
            170 callgsubr
            1489 rmoveto
            -77 53 -60 63 callgsubr
            454 callsubr
            -27 callgsubr
            hintmask 11101000
            42 -532.0099945068359 rmoveto
            -98 callsubr
            35 callgsubr
            rlineto
            endchar
          </CharString>
          <CharString index="65">
            -75 -85.00999450683594 hvcurveto
            return
          </CharString>
          <CharString index="66">
            119.99000549316406 return
          </CharString>
          <CharString index="67">
            153.99000549316406 return
          </CharString>
          <CharString index="68">
            -24.990005493164062 -86 callgsubr
            return
          </CharString>
          <CharString index="69">
            -551.9900054931641 127 420 179.97999572753906 230.00001525878906 -46 callsubr
            452.00999450683594 170 callgsubr
            220 callsubr
            117 return
          </CharString>
          <CharString index="70">
            101.99000549316406 return
          </CharString>
          <CharString index="71">
            55 230 callsubr
            111.99000549316406 -18 callsubr
            98.02000427246094 hhcurveto
            96 callsubr
            29 -100.99000549316406 -215 hvcurveto
            -566 vlineto
            -133 -18 141 callsubr
            508 -9 callsubr
            -146 18 456 callgsubr
            88 -5 75 -13 92 callsubr
            vhcurveto
            45 63 107 48 87 hhcurveto
            180 36 -104 -218 hvcurveto
            -560.9900054931641 vlineto
            -118 -18 141 callsubr
            490 -9 callsubr
            -143 17 rlineto
            569 vlineto
            327 -70 142 -262 150 callsubr
            -182 -87 -65 -75 vhcurveto
            104 -46 171 callsubr
            48 -146.99000549316406 hhcurveto
            -136 -187 -49 callsubr
            -81 180 callsubr
            hvcurveto
            -21 callsubr
            46 rlineto
            81 547 callgsubr
            -295 -40 88 callsubr
            143 -40 rlineto
            -839 vlineto
            return
          </CharString>
          <CharString index="72">
            463.02000427246094 -11 315 337.97999572753906 498 vvcurveto
            445.00999450683594 -230 282.99000549316406 -525.9900054931641 vhcurveto
            return
          </CharString>
          <CharString index="73">
            65.99000549316406 return
          </CharString>
          <CharString index="74">
            127 rcurveline
            -1 hlineto
            -331 -311.00999450683594 rlineto
            return
          </CharString>
          <CharString index="75">
            -111 vlineto
            return
          </CharString>
          <CharString index="76">
            -34 callsubr
            259.99000549316406 827.9999847412109 259.00999450683594 return
          </CharString>
          <CharString index="77">
            117.49000549316406 return
          </CharString>
          <CharString index="78">
            -168 -22 rlineto
            628 675 rmoveto
            -46 -134 -3 5 -46 hvcurveto
            622.0200042724609 vlineto
            -21 callsubr
            188 callgsubr
            41 10 99 hhcurveto
            254.02000427246094 220 callgsubr
            -126 -175 -228 -105 131 callsubr
            -167 hvcurveto
            return
          </CharString>
          <CharString index="79">
            104.02000427246094 -118 1526.990005493164 vlineto
            -37 callgsubr
            36 rlineto
            -6 hlineto
            -373 -40 rlineto
            -97.00999450683594 vlineto
            200.99000549316406 69 callgsubr
            rlineto
            -373 vlineto
            return
          </CharString>
          <CharString index="80">
            49 -22 callsubr
            return
          </CharString>
          <CharString index="81">
            rmoveto
            328.00999450683594 -1020.9799957275391 rlineto
            204 hlineto
            208 724.9900054931641 39 101 callgsubr
            51 -240.99000549316406 216 -724.9900054931641 rlineto
            209 hlineto
            return
          </CharString>
          <CharString index="82">
            rmoveto
            1283.009994506836 -62 callgsubr
            return
          </CharString>
          <CharString index="83">
            109 callsubr
            28 rlineto
            107 -479 -107 vlineto
            146 -28 -256 -356.99000549316406 rlineto
            319 callsubr
            448 callsubr
            hlineto
            159 28 rlineto
            107 -525 -107 vlineto
            143 -28 439 callsubr
            -146 -18 59 callsubr
            -174 17 rlineto
            412 vlineto
            417 callsubr
            rlineto
            return
          </CharString>
          <CharString index="84">
            30 callgsubr
            -274 298 rlineto
            return
          </CharString>
          <CharString index="85">
            -51 callsubr
            -49 -76 -49 callsubr
            hvcurveto
            return
          </CharString>
          <CharString index="86">
            1.9900054931640625 return
          </CharString>
          <CharString index="87">
            -93 -46.97999572753906 -93 -104 -132.02000427246094 vvcurveto
            265 callsubr
            2 callsubr
            -124 373 vhcurveto
            1 hlineto
            319 280 190 237 195.99000549316406 -124 104 -267 hvcurveto
            -217.99000549316406 hlineto
            return
          </CharString>
          <CharString index="88">
            84.99000549316406 return
          </CharString>
          <CharString index="89">
            48.99000549316406 return
          </CharString>
          <CharString index="90">
            19.990005493164062 return
          </CharString>
          <CharString index="91">
            2.9900054931640625 return
          </CharString>
          <CharString index="92">
            -1.9900054931640625 return
          </CharString>
          <CharString index="93">
            -127.02000427246094 -109 10 callgsubr
            -124 519 callgsubr
            return
          </CharString>
          <CharString index="94">
            130.99000549316406 return
          </CharString>
          <CharString index="95">
            379 callgsubr
            63 -11 46 hhcurveto
            1 hlineto
            163 94 -57 callgsubr
            150.02000427246094 return
          </CharString>
          <CharString index="96">
            1827.979995727539 rmoveto
            -76 52 -58.99000549316406 return
          </CharString>
          <CharString index="97">
            6 10 callgsubr
            324 callgsubr
            5 -30 hhcurveto
            -214 -144 -196 -40 -22 hvcurveto
            -2 hlineto
            2 130 rlineto
            63 547 callgsubr
            -286 -40 88 callsubr
            142 -40 rlineto
            -840 vlineto
            return
          </CharString>
          <CharString index="98">
            -77 callsubr
            vlineto
            return
          </CharString>
          <CharString index="99">
            983 rlineto
            -395 -111 hlineto
            131 callgsubr
            -92 callsubr
            rlineto
            -1252.990005493164 vlineto
            280 callgsubr
            -23 rlineto
            return
          </CharString>
          <CharString index="100">
            267 -106 callsubr
            hlineto
            -80 24 -55 callgsubr
            35 -231.02000427246094 541 319 callsubr
            -19 callsubr
            rlinecurve
            431 592 161 -79 callgsubr
            -507.99000549316406 -32 callsubr
            162 -27 -396 -578 rlineto
            -168 398 callgsubr
            126 callsubr
            -1251 374 callsubr
            563 -56 callsubr
            vlineto
            -170.99000549316406 27.020004272460938 rlineto
            565 115 vlineto
            169 238 -698 305 callsubr
            hhcurveto
            endchar
          </CharString>
          <CharString index="101">
            97 callsubr
            478 callsubr
            338 357.99000549316406 418.02000427246094 205 248 callsubr
            287.99000549316406 174 70 3 callgsubr
            187 callgsubr
          </CharString>
          <CharString index="102">
            52 callgsubr
            171 callsubr
            vhcurveto
            -10 360 callsubr
            return
          </CharString>
          <CharString index="103">
            165 -7 callgsubr
            return
          </CharString>
          <CharString index="104">
            rmoveto
            -462.00999450683594 226 -317.97999572753906 return
          </CharString>
          <CharString index="105">
            471 9 rlineto
            -314.97999572753906 115 callgsubr
            -139 -103.02000427246094 -165 hhcurveto
            -80 -68 18 23 -53 hvcurveto
            -39 156 rlineto
            -123 hlineto
            -21 callsubr
            -203.99000549316406 rlineto
            -64 78 133 -51.99000549316406 181 hhcurveto
            300 235 221.97999572753906 366 2 hvcurveto
            396 -21 callsubr
            -239 210 -321.99000549316406 hhcurveto
            -130 -170.99000549316406 -24 -29 -61 hvcurveto
            2 -262.97999572753906 rlineto
            1 callgsubr
            hlineto
            44 376 callgsubr
            rlineto
            35 38 54 24 93 hhcurveto
            163.97999572753906 129 -134.99000549316406 -270 19 hvcurveto
            return
          </CharString>
          <CharString index="106">
            72.99000549316406 return
          </CharString>
          <CharString index="107">
            113.99000549316406 return
          </CharString>
          <CharString index="108">
            165.99000549316406 return
          </CharString>
          <CharString index="109">
            136.99000549316406 return
          </CharString>
          <CharString index="110">
            209 callgsubr
            -49 -42 callsubr
            50 callgsubr
            49 -63 return
          </CharString>
          <CharString index="111">
            202.02000427246094 273 -202.02000427246094 return
          </CharString>
          <CharString index="112">
            106 callsubr
            hintmask 11011001
            497.00999450683594 hlineto
            -44 callgsubr
            875.9900054931641 vlineto
            hintmask 10111001
            297 callgsubr
            hintmask 11011001
            48 callgsubr
            hintmask 10111001
            295 callsubr
            hintmask 11011001
            144 -30 256 callsubr
            hintmask 10110110
            483 callsubr
          </CharString>
          <CharString index="113">
            -165.99000549316406 return
          </CharString>
          <CharString index="114">
            rmoveto
            432 -1393.990005493164 rlineto
            324 callsubr
            hlineto
            295.02000427246094 995.9799957275391 302 -995.9799957275391 rlineto
            216 hlineto
            return
          </CharString>
          <CharString index="115">
            7 callgsubr
            -85.02000427246094 hvcurveto
            return
          </CharString>
          <CharString index="116">
            -37.99000549316406 return
          </CharString>
          <CharString index="117">
            54.99000549316406 return
          </CharString>
          <CharString index="118">
            101 callsubr
            875.5 129.49000549316406 -91.99000549316406 92 return
          </CharString>
          <CharString index="119">
            141.99000549316406 return
          </CharString>
          <CharString index="120">
            rmoveto
            41 -103 rlineto
            712.9900054931641 hlineto
            52.02000427246094 279 -106 247 callgsubr
            -81 -147 -425 -32 rlineto
            259.99000549316406 158 270.00999450683594 254 214 vvcurveto
            150 -120.02000427246094 -13 callsubr
            -226 428 callsubr
            -148 442 callsubr
            150 callgsubr
            -50 vhcurveto
            69 -78.99000549316406 rlineto
            47 46 101.00999450683594 55.99000549316406 -46 callsubr
            hhcurveto
            122 217 callsubr
            -74 -107 -246.99000549316406 -365.02000427246094 -260.02000427246094 -155 -94 hvcurveto
            return
          </CharString>
          <CharString index="121">
            -559.9900054931641 43 -67 callsubr
            43 return
          </CharString>
          <CharString index="122">
            43 -30 callgsubr
            43 return
          </CharString>
          <CharString index="123">
            45 callgsubr
            -77 callgsubr
            return
          </CharString>
          <CharString index="124">
            -74.02000427246094 return
          </CharString>
          <CharString index="125">
            89.99000549316406 return
          </CharString>
          <CharString index="126">
            -94 -225.99000549316406 rlineto
            9 933.9900054931641 35 callsubr
            66 228 callgsubr
            -16 -30 51.02000427246094 vhcurveto
            -428.02000427246094 -1175 499 callgsubr
            110 -58.02000427246094 192 248 vvcurveto
            670 562.0099945068359 rmoveto
            13 callgsubr
            0 callgsubr
            56 -186 -243 vvcurveto
            -4 callgsubr
            -65 -57 246 callsubr
            29 146 callsubr
            vhcurveto
            427.99000549316406 1174 rlineto
            endchar
          </CharString>
          <CharString index="127">
            35 169 rlineto
            28 23 63 callgsubr
            42 128 hhcurveto
            169 51 -64 -105 -117 269 callsubr
            -76 -165 495 callsubr
            -74 370 callgsubr
            -1 -135 rlineto
            2 78 callgsubr
            98.02000427246094 13 281 callsubr
            hhcurveto
            return
          </CharString>
          <CharString index="128">
            143 callgsubr
            322 callsubr
            285 callgsubr
            114 callsubr
            58 -281 113 callgsubr
            -287.99000549316406 272 callgsubr
            return
          </CharString>
          <CharString index="129">
            278.02000427246094 -84.99000549316406 59 -264.00999450683594 316 callsubr
            return
          </CharString>
          <CharString index="130">
            151 callsubr
            endchar
          </CharString>
          <CharString index="131">
            vstem
            206 callsubr
            820 vlineto
            48 callsubr
            188 -92 callsubr
            rlineto
            -900 vlineto
            -279 -10 -103 -32 420 callsubr
            -45 -143 179 callsubr
            -103 -94.97999572753906 -25 rrcurveto
            890 385 -94 callgsubr
            return
          </CharString>
          <CharString index="132">
            150 callgsubr
            150 callsubr
            -142 81 callgsubr
            return
          </CharString>
          <CharString index="133">
            166.99000549316406 34 159 118 124 callsubr
            vvcurveto
            236 -176 109 -335 -154 -174 -51 callgsubr
            -5 -86 vhcurveto
            145 callgsubr
            515 callsubr
            rlineto
            139 hlineto
            44 176 rlineto
            49 24 220 callgsubr
            284 callsubr
            126 hhcurveto
            155 95.00999450683594 303 callsubr
            -184 123 callsubr
            hvcurveto
            -221 1 -147 -93.99000549316406 363 callgsubr
            hhcurveto
            -120.02000427246094 -124 145 hlineto
            return
          </CharString>
          <CharString index="134">
            rmoveto
            104 callgsubr
            43 66 callsubr
            -16 229 callsubr
            hhcurveto
            222 63 212.99000549316406 134 57 hvcurveto
            return
          </CharString>
          <CharString index="135">
            410 callgsubr
            hintmask 11010000
            136 callsubr
            hintmask 10110000
            246 vlineto
            hintmask 11010000
            -10 callsubr
            hintmask 10110000
            -157 -16 rlineto
            endchar
          </CharString>
          <CharString index="136">
            53 140 98 93 106 rlinecurve
            -145 -41 callsubr
            -278 -295 rlineto
            506 hmoveto
            94.99000549316406 -82 100 53 152 106 81 -15 callgsubr
            rlinecurve
            -134 120.02000427246094 -293.99000549316406 -293.00999450683594 rlineto
            return
          </CharString>
          <CharString index="137">
            67 31 callgsubr
            return
          </CharString>
          <CharString index="138">
            262 151 -245 -401 -455.99000549316406 return
          </CharString>
          <CharString index="139">
            11 -45 -49 6 -53.99000549316406 hhcurveto
            -190 -984 rmoveto
            -70 87 307 callsubr
            146 174 vvcurveto
            303 94.99000549316406 150 183 43.99000549316406 38.02000427246094 -11 -19 479 callgsubr
            vhcurveto
            -293 -830 rlineto
            455 369.99000549316406 rmoveto
            -303 -94 -150 -182.99000549316406 -42 -37 282 callgsubr
            17 -30.990005493164062 vhcurveto
            294.99000549316406 825 rlineto
            65 -88 27 -142 -168 vvcurveto
            endchar
          </CharString>
          <CharString index="140">
            242 callgsubr
            144 callsubr
            734.0099945068359 1 callsubr
            return
          </CharString>
          <CharString index="141">
            301 callgsubr
            197 callgsubr
            -1 hlineto
            return
          </CharString>
          <CharString index="142">
            rmoveto
            457.00999450683594 164 214 251 return
          </CharString>
          <CharString index="143">
            468.00999450683594 139 callsubr
            433 callsubr
            106 return
          </CharString>
          <CharString index="144">
            113 callsubr
            248.99000549316406 return
          </CharString>
          <CharString index="145">
            1064.979995727539 1878 rmoveto
            -485.99000549316406 -384 -390 -485 -487 384 -392 485.99000549316406 485 384 392 487 485 -384 390 -485 hvcurveto
            -1635 vmoveto
            -417 -316.99000549316406 303 callgsubr
            414 412 315.97999572753906 346.00999450683594 418 416.00999450683594 316 -345 -413 -414 -316 -345.99000549316406 -416.00999450683594 hvcurveto
            return
          </CharString>
          <CharString index="146">
            191 callgsubr
            127 callsubr
            151 callgsubr
            69 return
          </CharString>
          <CharString index="147">
            216 291 callgsubr
            -2 -67 callsubr
            vhcurveto
            220 callsubr
            415 callgsubr
            -7 67 callgsubr
            297 callsubr
            return
          </CharString>
          <CharString index="148">
            -59 278 53 callgsubr
            return
          </CharString>
          <CharString index="149">
            392.99000549316406 -4 -223 209 -307 hhcurveto
            -346.00999450683594 -278 -269 -419.99000549316406 -40 hvcurveto
            -132 -21 callsubr
            -28 58 52 vvcurveto
            34 28 83.00999450683594 17 19 vhcurveto
            -167 28 rlineto
            -22.020004272460938 102 callgsubr
            -45.970001220703125 171 callsubr
            -76.99000549316406 vvcurveto
            -153 307 callgsubr
            150 callgsubr
            184 -15 callsubr
            vhcurveto
            return
          </CharString>
          <CharString index="150">
            1585.990005493164 rmoveto
            -158 558 158 -558 vlineto
            return
          </CharString>
          <CharString index="151">
            76.97999572753906 -90 callsubr
            538 callgsubr
            -9 callsubr
            -144 18 rlineto
            158 vlineto
            259 callsubr
            105.99000549316406 196.02000427246094 194 281.97999572753906 561 callsubr
            96 callgsubr
            555 callsubr
            501 108.99000549316406 500 callgsubr
            17 -391.99000549316406 590.9900054931641 rlineto
            return
          </CharString>
          <CharString index="152">
            136.49000549316406 966.5399932861328 -78 callgsubr
            258.989990234375 125 return
          </CharString>
          <CharString index="153">
            291 284 157 364 callsubr
            rlineto
            -37 callsubr
            -509.00999450683594 159 callsubr
            vlineto
            161.02000427246094 -29 -446.02000427246094 -465 147 callgsubr
            114 rlineto
            return
          </CharString>
          <CharString index="154">
            464 callsubr
            337 callgsubr
            -46 69 517 callgsubr
            -98 return
          </CharString>
          <CharString index="155">
            181 26.009994506835938 195 callsubr
            return
          </CharString>
          <CharString index="156">
            137 44 callgsubr
            return
          </CharString>
          <CharString index="157">
            rmoveto
            157 hlineto
            170.99000549316406 91.00999450683594 -66.00999450683594 -170.99000549316406 -157 -82 -71 -163 -95 -45 -6 callgsubr
            6 -34 hvcurveto
            450.00999450683594 vlineto
            endchar
          </CharString>
          <CharString index="158">
            -34 callgsubr
            249 callgsubr
            -100.989990234375 -41 callsubr
            673.989990234375 129 467.010009765625 101 callsubr
            -102.00001525878906 13 callgsubr
            return
          </CharString>
          <CharString index="159">
            -59 278.02000427246094 -23 callsubr
            return
          </CharString>
          <CharString index="160">
            269 96 callsubr
            123 callgsubr
            5 105 return
          </CharString>
          <CharString index="161">
            hstemhm
            62 callgsubr
            return
          </CharString>
          <CharString index="162">
            108 callgsubr
            -50 -66 -87.99000549316406 -103.02000427246094 vvcurveto
            -78.99000549316406 35 -54 62.02000427246094 -35 vhcurveto
            return
          </CharString>
          <CharString index="163">
            0 -30 callsubr
            return
          </CharString>
          <CharString index="164">
            rmoveto
            170.99000549316406 131 -536.9900054931641 174 hhcurveto
            102 callsubr
            -106 callsubr
            hlineto
            -83 24 -100 203 callsubr
            -134.99000549316406 360 -191 99 rlinecurve
            return
          </CharString>
          <CharString index="165">
            -46 callsubr
            1322 -41 callsubr
            278 callgsubr
            return
          </CharString>
          <CharString index="166">
            -86 callgsubr
            543.0099945068359 -99 callsubr
            return
          </CharString>
          <CharString index="167">
            75 callsubr
            -88 hvcurveto
            return
          </CharString>
          <CharString index="168">
            -493.99000549316406 1 callsubr
            return
          </CharString>
          <CharString index="169">
            1252.990005493164 vlineto
            return
          </CharString>
          <CharString index="170">
            865 275 144 -275 vlineto
            -1 173.02000427246094 rlineto
            109 callsubr
            46 52 101.00999450683594 66 callsubr
            260 callsubr
            -34 -19 19 vhcurveto
            224 vlineto
            7 -19 -45 9.990005493164062 -56 hhcurveto
            -216.99000549316406 -219 -208 -261 hvcurveto
            343 callgsubr
            vlineto
            -191 -45 rlineto
            -99 191 -863.9900054931641 vlineto
            return
          </CharString>
          <CharString index="171">
            285 callsubr
            39.02000427246094 211 -13 callsubr
            53 244 rrcurveto
            27 222 callsubr
            237 callsubr
            -103 221 callgsubr
            420 callsubr
            return
          </CharString>
          <CharString index="172">
            -82 -145 vhcurveto
            -64 -34 171 callgsubr
            -46 callgsubr
            366 callgsubr
            hhcurveto
            108 callgsubr
            204 callgsubr
            6 -21 callsubr
            -92 callsubr
            hvcurveto
            return
          </CharString>
          <CharString index="173">
            76.99000549316406 return
          </CharString>
          <CharString index="174">
            68.00999450683594 return
          </CharString>
          <CharString index="175">
            112.99000549316406 return
          </CharString>
          <CharString index="176">
            -11 callsubr
            78.00999450683594 413 callgsubr
            return
          </CharString>
          <CharString index="177">
            146 26 rlineto
            68 callsubr
            -535 172 callsubr
            vlineto
            158 304 callgsubr
            rlineto
            -343 vlineto
            -190 return
          </CharString>
          <CharString index="178">
            vhcurveto
            550 callsubr
            return
          </CharString>
          <CharString index="179">
            -46 217 callsubr
            98 18 callgsubr
            -5 46.02000427246094 -29 hvcurveto
            -170 hlineto
            return
          </CharString>
          <CharString index="180">
            -54 -255 -57 255 -165 589 158 5 callgsubr
            -501 -106 vlineto
            return
          </CharString>
          <CharString index="181">
            hstem
            -48 callsubr
            508.97999572753906 251.99000549316406 420 vstem
            return
          </CharString>
          <CharString index="182">
            71 89 -41 callgsubr
            -49 -60 callsubr
            return
          </CharString>
          <CharString index="183">
            hstemhm
            294.99000549316406 2 callgsubr
            return
          </CharString>
          <CharString index="184">
            -159.99000549316406 return
          </CharString>
          <CharString index="185">
            78.99000549316406 return
          </CharString>
          <CharString index="186">
            39 428 callgsubr
            rlineto
            487 hlineto
            6 -9 callgsubr
            rlineto
            -629 hlineto
            472 callgsubr
            -489 306 callgsubr
            -53 rlineto
            218 callgsubr
            -30 callgsubr
            90 284 callsubr
            380 callgsubr
            hhcurveto
            -9 callgsubr
            69 249 callsubr
            179 callsubr
            -150 -151 -87 319 callsubr
            return
          </CharString>
          <CharString index="187">
            -155 -70 247 callgsubr
            -37 callsubr
            46 24 46 36 32 hvcurveto
            -11 46 51 -6 56.02000427246094 hhcurveto
            return
          </CharString>
          <CharString index="188">
            -54 callgsubr
            517 callsubr
            return
          </CharString>
          <CharString index="189">
            hhcurveto
            -181 -150 128 305 return
          </CharString>
          <CharString index="190">
            77.99000549316406 return
          </CharString>
          <CharString index="191">
            -23 callgsubr
            77 vhcurveto
            128 callgsubr
            104.02000427246094 312 callgsubr
            return
          </CharString>
          <CharString index="192">
            102 callgsubr
            24 -18 -38 vvcurveto
            -52 return
          </CharString>
          <CharString index="193">
            -706 546.9700012207031 295.00999450683594 hstem
            424 callgsubr
            306.99000549316406 vstem
            203 682.9900054931641 rmoveto
            -83 59 callgsubr
            62.02000427246094 97 72 522 callsubr
            150 callgsubr
            -92 vhcurveto
            endchar
          </CharString>
          <CharString index="194">
            hstem
            -31 callsubr
            vstem
            return
          </CharString>
          <CharString index="195">
            rlineto
            96 callgsubr
            vlineto
            return
          </CharString>
          <CharString index="196">
            82 callgsubr
            587 -99 callsubr
            265 callsubr
            -30 callgsubr
            rlineto
            1257 624.9900054931641 -1257 vlineto
            280 callgsubr
            -39 callsubr
            588.9900054931641 -99 callsubr
            -192 24 rlineto
            return
          </CharString>
          <CharString index="197">
            418 102 callgsubr
            62.02000427246094 -410.00999450683594 rlineto
            149 hlineto
            -15 542 rlineto
            -1070 hlineto
            return
          </CharString>
          <CharString index="198">
            -43 rlineto
            -94.99000549316406 vlineto
            return
          </CharString>
          <CharString index="199">
            61.99000549316406 return
          </CharString>
          <CharString index="200">
            -13 callsubr
            63 -166 177 hhcurveto
            145 477 callsubr
            94 95 10 callsubr
            hvcurveto
            269 callsubr
            94.99000549316406 rlineto
            365 callgsubr
            -47 -64 -55 144 callgsubr
            hhcurveto
            hintmask 01011000
            -122 -70 165 -181 hhcurveto
            -145.99000549316406 -122 -99 -89 229 callgsubr
            hvcurveto
            return
          </CharString>
          <CharString index="201">
            0 callgsubr
            vlineto
            365 callsubr
            307 callsubr
            rlineto
            -1249.020004272461 vlineto
            -224.99000549316406 -26.990005493164062 141 callsubr
            return
          </CharString>
          <CharString index="202">
            -41 callgsubr
            88 67 callsubr
            return
          </CharString>
          <CharString index="203">
            171.99000549316406 return
          </CharString>
          <CharString index="204">
            361 callsubr
            404 callgsubr
            279 callgsubr
            53 callsubr
            vhcurveto
            539.0099945068359 vlineto
            117 21 rlineto
            129 -596.9900054931641 -129 vlineto
            245 -23 rlineto
            -438 vlineto
            -58 -60 -118 -27 172 callsubr
            hhcurveto
            -331 return
          </CharString>
          <CharString index="205">
            709 115 callsubr
            rmoveto
            -40 callsubr
            -18 741 1810.979995727539 -152 22 -743 329 callgsubr
            -577 844.9799957275391 rmoveto
            -115 vlineto
            -38 82 109 69 callgsubr
            112 hhcurveto
            305.99000549316406 148 231 callgsubr
            342 callsubr
            hvcurveto
            return
          </CharString>
          <CharString index="206">
            121 callsubr
            89.00999450683594 306 callsubr
            78 101 -153 -33 callsubr
            return
          </CharString>
          <CharString index="207">
            419 callsubr
            40 hvcurveto
            -98 64 361 callgsubr
            -22 return
          </CharString>
          <CharString index="208">
            131.99000549316406 return
          </CharString>
          <CharString index="209">
            230.99000549316406 return
          </CharString>
          <CharString index="210">
            -66.99000549316406 return
          </CharString>
          <CharString index="211">
            rmoveto
            192 hlineto
            208 127 -105 -228 -229.99000549316406 -116 -130 -220 -104 -42 8 11 return
          </CharString>
          <CharString index="212">
            165 -115 vhcurveto
            -1 hlineto
            -68 146 callsubr
            -45 400 callgsubr
            hvcurveto
            97 callgsubr
            130 callgsubr
            -13 -180 vvcurveto
            -187 -88 return
          </CharString>
          <CharString index="213">
            -94 callgsubr
            vlineto
            return
          </CharString>
          <CharString index="214">
            -124.99000549316406 return
          </CharString>
          <CharString index="215">
            -36.99000549316406 return
          </CharString>
          <CharString index="216">
            147.99000549316406 return
          </CharString>
          <CharString index="217">
            83 callsubr
            241 callsubr
            3 hlineto
            endchar
          </CharString>
          <CharString index="218">
            -94 callgsubr
            507 -99 callsubr
            return
          </CharString>
          <CharString index="219">
            171 15 callgsubr
            return
          </CharString>
          <CharString index="220">
            hstemhm
            -19 callsubr
            return
          </CharString>
          <CharString index="221">
            90.00999450683594 return
          </CharString>
          <CharString index="222">
            -142.99000549316406 return
          </CharString>
          <CharString index="223">
            299 callsubr
            12 callsubr
            174 callgsubr
            return
          </CharString>
          <CharString index="224">
            rmoveto
            -598 -734.9900054931641 -137.02000427246094 -210 rlineto
            return
          </CharString>
          <CharString index="225">
            -48 -76 -49 callsubr
            hvcurveto
            return
          </CharString>
          <CharString index="226">
            225 callgsubr
            -273.97999572753906 298 rlineto
            -183 hlineto
            return
          </CharString>
          <CharString index="227">
            298 callsubr
            281 277 callsubr
            -280.97999572753906 113 callgsubr
            return
          </CharString>
          <CharString index="228">
            153 callsubr
            80 -68 rlineto
            1 hlineto
            return
          </CharString>
          <CharString index="229">
            14.990005493164062 return
          </CharString>
          <CharString index="230">
            0.9799957275390625 return
          </CharString>
          <CharString index="231">
            234.99000549316406 return
          </CharString>
          <CharString index="232">
            172 callgsubr
            28 rlineto
            107 -465 -107 vlineto
            168 -29 -274 -727.9900054931641 -24 17 callsubr
            -23.990005493164062 230 callsubr
            -269 730.9900054931641 1 callsubr
            28 rlineto
            107 -543.9900054931641 -107 vlineto
            -46 callsubr
            -29 return
          </CharString>
          <CharString index="233">
            354 callsubr
            -553 234 callsubr
            return
          </CharString>
          <CharString index="234">
            49 95 callsubr
            return
          </CharString>
          <CharString index="235">
            1060.990005493164 rmoveto
            -16 callgsubr
            -34 rlineto
            92 callsubr
            57 63 182 174 vvcurveto
            105 -46 callgsubr
            92 callgsubr
            -37 37 vhcurveto
            -168 -40 115 callgsubr
            -40 rlineto
            23 -30 30 -104 -124 vvcurveto
            -93 -10 -88 -23 -81 vhcurveto
            4 -24 rlineto
            return
          </CharString>
          <CharString index="236">
            286 168 120.97000122070312 244.02000427246094 221 -134.99000549316406 122.99000549316406 -302 hvcurveto
            -221 315 hlineto
            return
          </CharString>
          <CharString index="237">
            -20.009994506835938 return
          </CharString>
          <CharString index="238">
            -106.99000549316406 return
          </CharString>
          <CharString index="239">
            -93 -46.97999572753906 -93 -104 -132.02000427246094 vvcurveto
            265 callsubr
            137 -124 373 vhcurveto
            128 callgsubr
            319.02000427246094 281 callgsubr
            190 237 195.99000549316406 97 callgsubr
            104 -267 hvcurveto
            -218 hlineto
            return
          </CharString>
          <CharString index="240">
            vvcurveto
            -126 -50 222 callgsubr
            -92 vhcurveto
            -1 496 callgsubr
            -41.97999572753906 4.0200042724609375 10 -28 hvcurveto
            -1 163 callgsubr
            6 return
          </CharString>
          <CharString index="241">
            -68 callgsubr
            766 vlineto
            return
          </CharString>
          <CharString index="242">
            -103 callsubr
            541 -99 callsubr
            -169 17 rlineto
            402 553 -401 vlineto
            -169 317 callgsubr
            return
          </CharString>
          <CharString index="243">
            726 vlineto
            41 55 94 45 109 callsubr
            hhcurveto
            52 43 401 callgsubr
            -13 23 hvcurveto
            return
          </CharString>
          <CharString index="244">
            vlineto
            -16 callsubr
            36 59 169 callsubr
            87 hhcurveto
            return
          </CharString>
          <CharString index="245">
            211 callgsubr
            462.010009765625 228 return
          </CharString>
          <CharString index="246">
            hmoveto
            -74 -57 callgsubr
            -63 return
          </CharString>
          <CharString index="247">
            hmoveto
            7 callgsubr
            return
          </CharString>
          <CharString index="248">
            rlineto
            -55 callgsubr
            return
          </CharString>
          <CharString index="249">
            -102.00999450683594 return
          </CharString>
          <CharString index="250">
            225.99000549316406 return
          </CharString>
          <CharString index="251">
            243.99000549316406 return
          </CharString>
          <CharString index="252">
            150.99000549316406 return
          </CharString>
          <CharString index="253">
            -49.99000549316406 return
          </CharString>
          <CharString index="254">
            962.0099945068359 -184 rmoveto
            -213.02000427246094 265 callsubr
            -157 -276.99000549316406 -226.02000427246094 549 callsubr
            193 153 398 callsubr
            233.99000549316406 -111 188 -256 hvcurveto
            return
          </CharString>
          <CharString index="255">
            -6 23 38 -7 284 callsubr
            hhcurveto
            142 45 59 81 399 callgsubr
            hvcurveto
            59 111.99000549316406 283 callsubr
            return
          </CharString>
          <CharString index="256">
            229.99000549316406 return
          </CharString>
          <CharString index="257">
            -141.99000549316406 return
          </CharString>
          <CharString index="258">
            244 callsubr
            -49 34 rlineto
            -15 callsubr
            hlineto
            429 callgsubr
            91 callsubr
            164 130 callsubr
            rlineto
            -1395 vlineto
            372 callgsubr
            return
          </CharString>
          <CharString index="259">
            395 callgsubr
            278 4 callsubr
            return
          </CharString>
          <CharString index="260">
            1700.990005493164 rmoveto
            return
          </CharString>
          <CharString index="261">
            -42 -150 rlineto
            -61 -51 -49 callsubr
            -57 284 callgsubr
            hhcurveto
            -218 -196 216 406 -10 hvcurveto
            3 -1 4 4 vvcurveto
            955 -58 callsubr
            rlineto
            11 47.99000549316406 -16 callsubr
            75 475 callsubr
            vvcurveto
            return
          </CharString>
          <CharString index="262">
            rmoveto
            108 -33 114 callsubr
            365 callsubr
            64 -16.979995727539062 71 -9.009994506835938 77 1 rlinecurve
            394 7 292 310.97999572753906 482 vvcurveto
            332 468 callsubr
            250 -228 113.00999450683594 vhcurveto
            return
          </CharString>
          <CharString index="263">
            -57 callgsubr
            104 vvcurveto
            88 247 callsubr
            61 103 116 83 -70 -111 -57 -35 -76 -71 342 callgsubr
            vhcurveto
            return
          </CharString>
          <CharString index="264">
            -92 callsubr
            rlineto
            -1251 vlineto
            return
          </CharString>
          <CharString index="265">
            -89.99000549316406 return
          </CharString>
          <CharString index="266">
            -101.99000549316406 return
          </CharString>
          <CharString index="267">
            165 -92 callsubr
            rlineto
            return
          </CharString>
          <CharString index="268">
            342 callsubr
            -96 callgsubr
            -585.0200042724609 -32 callsubr
            174 -58 callgsubr
            -577 vlineto
            -46.99000549316406 -63 -118 -29 -104 hhcurveto
            -218.99000549316406 -48 188 callgsubr
            355 hvcurveto
            return
          </CharString>
          <CharString index="269">
            116 559 callgsubr
            231 -51.94999694824219 -78 callgsubr
            hstemhm
            421 callsubr
            467 callgsubr
            return
          </CharString>
          <CharString index="270">
            -50 17 191 callsubr
            return
          </CharString>
          <CharString index="271">
            170.97999572753906 322 279 -184 167 -334.99000549316406 hvcurveto
            -256 return
          </CharString>
          <CharString index="272">
            -40 callsubr
            918.989990234375 118 return
          </CharString>
          <CharString index="273">
            68 callsubr
            959.989990234375 112 return
          </CharString>
          <CharString index="274">
            -23 -18 callgsubr
            return
          </CharString>
          <CharString index="275">
            -16.020004272460938 return
          </CharString>
          <CharString index="276">
            10.020004272460938 return
          </CharString>
          <CharString index="277">
            -113.00999450683594 return
          </CharString>
          <CharString index="278">
            -86.02000427246094 return
          </CharString>
          <CharString index="279">
            -112.99000549316406 return
          </CharString>
          <CharString index="280">
            -1510.009994506836 rmoveto
            -49 callsubr
            323 callgsubr
            103 callsubr
            -91 -49 callsubr
            66.99000549316406 -51.99000549316406 74 91.02000427246094 76 60 98 -1 callsubr
            -44 63 -98 hvcurveto
            return
          </CharString>
          <CharString index="281">
            149.02000427246094 50 94 106 115 vvcurveto
            173 -148 100 -280 vhcurveto
            -217 -85 -55 -137.99000549316406 hhcurveto
            return
          </CharString>
          <CharString index="282">
            hlineto
            92 36 260.02000427246094 212 10 callsubr
            93 return
          </CharString>
          <CharString index="283">
            0 351 callgsubr
            return
          </CharString>
          <CharString index="284">
            -17 -86 callgsubr
            return
          </CharString>
          <CharString index="285">
            -7.9900054931640625 return
          </CharString>
          <CharString index="286">
            -119.00999450683594 return
          </CharString>
          <CharString index="287">
            -88.99000549316406 return
          </CharString>
          <CharString index="288">
            67 callsubr
            -45 69 -88 hvcurveto
            -1 hlineto
            -97 -49 -42 callsubr
            return
          </CharString>
          <CharString index="289">
            573 callgsubr
            858.0200042724609 145 callsubr
            return
          </CharString>
          <CharString index="290">
            480 callgsubr
            23.990005493164062 -18 -38 vvcurveto
            -52 -21 4 callgsubr
            -49 callgsubr
            258 callgsubr
            rlineto
            return
          </CharString>
          <CharString index="291">
            547 callsubr
            -333 vlineto
            -359 109 callgsubr
            322 callgsubr
            276.00999450683594 122 return
          </CharString>
          <CharString index="292">
            218 callgsubr
            vhcurveto
            -170 hlineto
            -29 -5 315 callgsubr
            return
          </CharString>
          <CharString index="293">
            77 callgsubr
            49 -28 callgsubr
            return
          </CharString>
          <CharString index="294">
            15 callsubr
            hstem
            return
          </CharString>
          <CharString index="295">
            60.99000549316406 return
          </CharString>
          <CharString index="296">
            -59 131 callsubr
            hhcurveto
            -164 -133 -13 callsubr
            313.02000427246094 5 hvcurveto
            303 callgsubr
            5 143 129 181.99000549316406 hhcurveto
            114 callsubr
            85 -29 221 callgsubr
            return
          </CharString>
          <CharString index="297">
            vlineto
            -48 34 rlineto
            -3 hlineto
            -332.99000549316406 91 callsubr
            156 130 callsubr
            rlineto
            return
          </CharString>
          <CharString index="298">
            -23 23 -14 vhcurveto
            145 callgsubr
            85 callsubr
            return
          </CharString>
          <CharString index="299">
            -757 -497.99000549316406 116 1505.009994506836 -78 callgsubr
            return
          </CharString>
          <CharString index="300">
            -41 rlineto
            -117.99000549316406 vlineto
            145 236 callsubr
            return
          </CharString>
          <CharString index="301">
            -46.02000427246094 9 callsubr
            -98 return
          </CharString>
          <CharString index="302">
            rlineto
            111 -602.0099945068359 -32 callsubr
            return
          </CharString>
          <CharString index="303">
            -23 -86 callgsubr
            return
          </CharString>
          <CharString index="304">
            -300.00999450683594 rlineto
            return
          </CharString>
          <CharString index="305">
            288.00999450683594 return
          </CharString>
          <CharString index="306">
            -0.9799957275390625 return
          </CharString>
          <CharString index="307">
            413 -6 callgsubr
            170 423 callsubr
            208 hhcurveto
            255.02000427246094 87 -256.97999572753906 -203.02000427246094 -16 callsubr
            hvcurveto
            -34 -2 -32.99000549316406 -4 -33 vhcurveto
            return
          </CharString>
          <CharString index="308">
            -633 1384.979995727539 385 callsubr
            467 callsubr
            233 hintmask 01100000
            return
          </CharString>
          <CharString index="309">
            1 callgsubr
            491 callsubr
            351.97999572753906 125 328 143 callsubr
            return
          </CharString>
          <CharString index="310">
            26.990005493164062 return
          </CharString>
          <CharString index="311">
            158.99000549316406 return
          </CharString>
          <CharString index="312">
            -198.97999572753906 rlineto
            183 340 callgsubr
            175 147 hlineto
            -175 103 callgsubr
            rlineto
            262 vlineto
            -170 -13 -13 -258 -372 -18 63 callgsubr
            13 callgsubr
            return
          </CharString>
          <CharString index="313">
            -12 -276 rmoveto
            56.99000549316406 -92 285 callsubr
            39.02000427246094 211 -13 callsubr
            53 244 rlinecurve
            203 callsubr
            121 -48 callsubr
            179 219 vvcurveto
            return
          </CharString>
          <CharString index="314">
            hhcurveto
            174 30 159 callsubr
            -214 hvcurveto
            -567.0099945068359 vlineto
            return
          </CharString>
          <CharString index="315">
            -497.99000549316406 116 381.99000549316406 return
          </CharString>
          <CharString index="316">
            -77 callsubr
            605.0099945068359 111 return
          </CharString>
          <CharString index="317">
            107 54 callsubr
            return
          </CharString>
          <CharString index="318">
            -741.9900054931641 vlineto
            endchar
          </CharString>
          <CharString index="319">
            0 -106 callsubr
            return
          </CharString>
          <CharString index="320">
            117 -10.960006713867188 -78 callgsubr
            hstemhm
            -77 callsubr
            205 358.989990234375 424 callgsubr
            358.02000427246094 204.97999572753906 359.02000427246094 204 return
          </CharString>
          <CharString index="321">
            -94 callgsubr
            686 -99 callsubr
            return
          </CharString>
          <CharString index="322">
            -76 -49 callsubr
            hvcurveto
            467.99000549316406 hmoveto
            -74 return
          </CharString>
          <CharString index="323">
            134 -12 callgsubr
            return
          </CharString>
          <CharString index="324">
            67.00999450683594 return
          </CharString>
          <CharString index="325">
            236.99000549316406 return
          </CharString>
          <CharString index="326">
            -4.0200042724609375 return
          </CharString>
          <CharString index="327">
            -118.99000549316406 return
          </CharString>
          <CharString index="328">
            -95.99000549316406 return
          </CharString>
          <CharString index="329">
            121 -48 callsubr
            179 219 vvcurveto
            820 vlineto
            48 callsubr
            188 -92 callsubr
            rlineto
            -900 vlineto
            -279 return
          </CharString>
          <CharString index="330">
            65 -79 -118 32 150 callsubr
            hhcurveto
            -1 hlineto
            -242 -1 -233.99000549316406 -141 -246 vvcurveto
            -151.99000549316406 75 -115.02000427246094 132 455 callsubr
            return
          </CharString>
          <CharString index="331">
            164 307 callsubr
            rlineto
            -1259 vlineto
            -169 -22 -86 callgsubr
            285 vlineto
            return
          </CharString>
          <CharString index="332">
            268 51 -148 -146 -213 -114 -107 -183 -131.99000549316406 -83 23 30 -53 hvcurveto
            return
          </CharString>
          <CharString index="333">
            -34 callsubr
            271.00999450683594 return
          </CharString>
          <CharString index="334">
            1712.990005493164 rmoveto
            return
          </CharString>
          <CharString index="335">
            -158.99000549316406 return
          </CharString>
          <CharString index="336">
            73.00999450683594 return
          </CharString>
          <CharString index="337">
            72.00999450683594 return
          </CharString>
          <CharString index="338">
            39 rlineto
            -5 hlineto
            return
          </CharString>
          <CharString index="339">
            -76 260.99000549316406 204 callsubr
            390.99998474121094 159 hstem
            368 callgsubr
            921.9799957275391 vstem
            368 callgsubr
            969.9900054931641 rmoveto
            -159 return
          </CharString>
          <CharString index="340">
            109 106 40 hvcurveto
            -98 92 callsubr
            rlineto
            -35 return
          </CharString>
          <CharString index="341">
            -111 227 callgsubr
            return
          </CharString>
          <CharString index="342">
            163 -92 callsubr
            rlineto
            return
          </CharString>
          <CharString index="343">
            -41 391 callgsubr
            return
          </CharString>
          <CharString index="344">
            -10.020004272460938 return
          </CharString>
          <CharString index="345">
            -38 callsubr
            hstemhm
            return
          </CharString>
          <CharString index="346">
            hstemhm
            -14 501 -501 1792 -433.02000427246094 433 return
          </CharString>
          <CharString index="347">
            -37 callsubr
            -90 callsubr
            return
          </CharString>
          <CharString index="348">
            171 callgsubr
            rlineto
            return
          </CharString>
          <CharString index="349">
            rmoveto
            -19 498 callsubr
            10 callgsubr
            56 160 callgsubr
            -48 callsubr
            10 callsubr
            hhcurveto
            317.00999450683594 202 157 202 return
          </CharString>
          <CharString index="350">
            260 callsubr
            210.97999572753906 -106 36 -80 -208 rlineto
            18 -64 -71 10 -77 hhcurveto
            -395 -297 -307 -482 -333 117 -258 228 -116 hvcurveto
            return
          </CharString>
          <CharString index="351">
            -94 callgsubr
            560 -99 callsubr
            -170 17 rlineto
            1519 vlineto
            return
          </CharString>
          <CharString index="352">
            492 callgsubr
            470 callsubr
            465 callgsubr
            return
          </CharString>
          <CharString index="353">
            15.009994506835938 return
          </CharString>
          <CharString index="354">
            84.00999450683594 return
          </CharString>
          <CharString index="355">
            211.99000549316406 return
          </CharString>
          <CharString index="356">
            -65.99000549316406 return
          </CharString>
          <CharString index="357">
            hvcurveto
            -1 hlineto
            -99 return
          </CharString>
          <CharString index="358">
            -153 hlineto
            88 646.9900054931641 rlineto
            244 hlineto
            -179 -646.9900054931641 rlineto
            return
          </CharString>
          <CharString index="359">
            -15 callsubr
            147 -111 106 -196.02000427246094 17.990005493164062 rrcurveto
            return
          </CharString>
          <CharString index="360">
            -222 -111 rmoveto
            159 -72 179 -42 -120 vvcurveto
            -92 return
          </CharString>
          <CharString index="361">
            278 callsubr
            hstemhm
            return
          </CharString>
          <CharString index="362">
            16 0 13 78 callgsubr
            vvcurveto
            -118 hlineto
            return
          </CharString>
          <CharString index="363">
            rlineto
            -873.9900054931641 vlineto
            return
          </CharString>
          <CharString index="364">
            hstemhm
            107 callgsubr
            return
          </CharString>
          <CharString index="365">
            245.99000549316406 return
          </CharString>
          <CharString index="366">
            -5.0200042724609375 return
          </CharString>
          <CharString index="367">
            85.00999450683594 return
          </CharString>
          <CharString index="368">
            -25 rlineto
            -175.99000549316406 vlineto
            -182 return
          </CharString>
          <CharString index="369">
            548 callgsubr
            10 callsubr
            166 callgsubr
            1 492 callgsubr
            470 callgsubr
            406 rlineto
            return
          </CharString>
          <CharString index="370">
            rmoveto
            -115 vlineto
            9 callsubr
            82 109.02000427246094 -20 111.99000549316406 hhcurveto
            306.00999450683594 109 callsubr
            146 179 hvcurveto
            return
          </CharString>
          <CharString index="371">
            219 callgsubr
            6 87 -77.99000549316406 -88 vvcurveto
            -135 -106 -63 -202 return
          </CharString>
          <CharString index="372">
            -187.99000549316406 return
          </CharString>
          <CharString index="373">
            223.99000549316406 return
          </CharString>
          <CharString index="374">
            14.009994506835938 return
          </CharString>
          <CharString index="375">
            219.99000549316406 return
          </CharString>
          <CharString index="376">
            -83.99000549316406 return
          </CharString>
          <CharString index="377">
            140 29 rlineto
            107 -529 -107 vlineto
            405 callgsubr
            -28 rlineto
            -349 -553 348 vlineto
            163 355 callgsubr
            return
          </CharString>
          <CharString index="378">
            147 callgsubr
            10 -28 hvcurveto
            -1 379 callgsubr
            return
          </CharString>
          <CharString index="379">
            -397 rlineto
            180 hlineto
            return
          </CharString>
          <CharString index="380">
            -30 -6 callgsubr
            return
          </CharString>
          <CharString index="381">
            167.02000427246094 128 -134 -303.97999572753906 -3 hvcurveto
            -326 -5 -136 -157 -189.99000549316406 hhcurveto
            -91 -83 23 42 -18 hvcurveto
            return
          </CharString>
          <CharString index="382">
            238 callgsubr
            rlineto
            34 402 callsubr
            268 callgsubr
            83 91.02000427246094 123 -18 callsubr
            -167 164 hhcurveto
            return
          </CharString>
          <CharString index="383">
            97 callgsubr
            -89 -27 412 callsubr
            return
          </CharString>
          <CharString index="384">
            285 callgsubr
            18 callsubr
            58 return
          </CharString>
          <CharString index="385">
            122.49000549316406 359 callgsubr
            return
          </CharString>
          <CharString index="386">
            180 callgsubr
            -17 rlineto
            return
          </CharString>
          <CharString index="387">
            206.99000549316406 return
          </CharString>
          <CharString index="388">
            6.9900054931640625 return
          </CharString>
          <CharString index="389">
            -96.99000549316406 return
          </CharString>
          <CharString index="390">
            63.02000427246094 return
          </CharString>
          <CharString index="391">
            35.99000549316406 return
          </CharString>
          <CharString index="392">
            188.99000549316406 return
          </CharString>
          <CharString index="393">
            148 -34 callgsubr
            -41 callsubr
            -104 104 1314.990005493164 -18 callgsubr
            -55.95001220703125 -78 callgsubr
            return
          </CharString>
          <CharString index="394">
            -548 -185.99000549316406 1965.990005493164 hstem
            340.99000549316406 146 callgsubr
            vstem
            340.99000549316406 1780 rmoveto
            return
          </CharString>
          <CharString index="395">
            135 -120.989990234375 121 -107.010009765625 210 callsubr
            489.99998474121094 224 return
          </CharString>
          <CharString index="396">
            427 callsubr
            350 rlineto
            -1092 -111 hlineto
            168 -7 callgsubr
            -165 -24 rlineto
            endchar
          </CharString>
          <CharString index="397">
            525 callsubr
            115 callsubr
            55.99000549316406 return
          </CharString>
          <CharString index="398">
            297 callsubr
            6 callsubr
            return
          </CharString>
          <CharString index="399">
            164 541 callsubr
            113.00999450683594 return
          </CharString>
          <CharString index="400">
            109 callgsubr
            6.9999847412109375 159 hstemhm
            return
          </CharString>
          <CharString index="401">
            83 callsubr
            vhcurveto
            1 hlineto
            105 return
          </CharString>
          <CharString index="402">
            160 28 rlineto
            107 -529 -106 vlineto
            return
          </CharString>
          <CharString index="403">
            hlineto
            158 -92 callsubr
            rlineto
            return
          </CharString>
          <CharString index="404">
            -101.00999450683594 -164 hhcurveto
            return
          </CharString>
          <CharString index="405">
            -58 296 143 callgsubr
            return
          </CharString>
          <CharString index="406">
            1689.990005493164 rmoveto
            -215 return
          </CharString>
          <CharString index="407">
            66 callsubr
            vhcurveto
            1 hlineto
            return
          </CharString>
          <CharString index="408">
            -63 77 577 callgsubr
            return
          </CharString>
          <CharString index="409">
            hlineto
            -296.02000427246094 return
          </CharString>
          <CharString index="410">
            -71.99000549316406 return
          </CharString>
          <CharString index="411">
            44.99000549316406 return
          </CharString>
          <CharString index="412">
            148.99000549316406 return
          </CharString>
          <CharString index="413">
            28 237 123 return
          </CharString>
          <CharString index="414">
            -29.990005493164062 return
          </CharString>
          <CharString index="415">
            80.02000427246094 return
          </CharString>
          <CharString index="416">
            255 callgsubr
            hstemhm
            -18 callsubr
            141 484.97999572753906 241 -192.99000549316406 return
          </CharString>
          <CharString index="417">
            -183 -24 rlineto
            endchar
          </CharString>
          <CharString index="418">
            329 205 callgsubr
            58 -294.00999450683594 rlineto
            138.02000427246094 hlineto
            237 callsubr
            426 rlineto
            -889 hlineto
            return
          </CharString>
          <CharString index="419">
            -74 -23 -13 callsubr
            557.989990234375 125 323.0500030517578 462 callsubr
            118 return
          </CharString>
          <CharString index="420">
            -23 116 369.99000549316406 117 433.989990234375 154 return
          </CharString>
          <CharString index="421">
            210 callsubr
            552.9999847412109 return
          </CharString>
          <CharString index="422">
            180 callsubr
            -28 callgsubr
            return
          </CharString>
          <CharString index="423">
            -189 -255 189 rlineto
            return
          </CharString>
          <CharString index="424">
            257.97999572753906 229 return
          </CharString>
          <CharString index="425">
            232.97999572753906 229 return
          </CharString>
          <CharString index="426">
            -200.99000549316406 return
          </CharString>
          <CharString index="427">
            178.99000549316406 return
          </CharString>
          <CharString index="428">
            -113.99000549316406 return
          </CharString>
          <CharString index="429">
            280.97999572753906 return
          </CharString>
          <CharString index="430">
            -27.020004272460938 return
          </CharString>
          <CharString index="431">
            205.99000549316406 return
          </CharString>
          <CharString index="432">
            -41.99000549316406 return
          </CharString>
          <CharString index="433">
            304 callsubr
            502.97999572753906 405.02000427246094 89 callgsubr
            404.99998474121094 505.02000427246094 return
          </CharString>
          <CharString index="434">
            22 -1 185 callsubr
            return
          </CharString>
          <CharString index="435">
            67 callgsubr
            vhcurveto
            return
          </CharString>
          <CharString index="436">
            32 callgsubr
            176 callgsubr
            return
          </CharString>
          <CharString index="437">
            -143 0 121 574.5 131.5 344.97999572753906 350 -120.989990234375 121 return
          </CharString>
          <CharString index="438">
            vvcurveto
            -126 -50 214 callgsubr
            return
          </CharString>
          <CharString index="439">
            -197 -25.990005493164062 544 callsubr
            646 108.02000427246094 vlineto
            -219 541 callsubr
            return
          </CharString>
          <CharString index="440">
            212 55 93 -159 139 rcurveline
            -1 hlineto
            -330 -406 rlineto
            return
          </CharString>
          <CharString index="441">
            -106 callsubr
            hlineto
            464 callgsubr
            return
          </CharString>
          <CharString index="442">
            hstem
            258 callsubr
            223 310.989990234375 479 vstem
            return
          </CharString>
          <CharString index="443">
            1408 rmoveto
            76 -63.02000427246094 88.99000549316406 55 return
          </CharString>
          <CharString index="444">
            194.99000549316406 return
          </CharString>
          <CharString index="445">
            152.99000549316406 return
          </CharString>
          <CharString index="446">
            287.97999572753906 return
          </CharString>
          <CharString index="447">
            16.020004272460938 return
          </CharString>
          <CharString index="448">
            22.020004272460938 return
          </CharString>
          <CharString index="449">
            179.02000427246094 return
          </CharString>
          <CharString index="450">
            -3.9900054931640625 return
          </CharString>
          <CharString index="451">
            539.9999847412109 136 -108.989990234375 108.99000549316406 257 callsubr
            124 callsubr
            return
          </CharString>
          <CharString index="452">
            hstemhm
            124 callgsubr
            234 return
          </CharString>
          <CharString index="453">
            780 1176.990005493164 rlineto
            return
          </CharString>
          <CharString index="454">
            131 -109.989990234375 110 453 callgsubr
            624.989990234375 267 callgsubr
            return
          </CharString>
          <CharString index="455">
            460 callsubr
            -9 callgsubr
            102 callsubr
            return
          </CharString>
          <CharString index="456">
            162 -96 callgsubr
            -554 234 callsubr
            -1251 vlineto
            return
          </CharString>
          <CharString index="457">
            336.02000427246094 228 callsubr
            rmoveto
            -1 hlineto
            -123 -51 77 444 callsubr
            95.00999450683594 return
          </CharString>
          <CharString index="458">
            6 87 444 callgsubr
            -88 vvcurveto
            -135 -106 -63 -202 return
          </CharString>
          <CharString index="459">
            393 callgsubr
            75 vhcurveto
            return
          </CharString>
          <CharString index="460">
            277 -133 161.02000427246094 -435 return
          </CharString>
          <CharString index="461">
            hlineto
            387 callgsubr
            return
          </CharString>
          <CharString index="462">
            541 callgsubr
            218 callsubr
            return
          </CharString>
          <CharString index="463">
            -45 -111 -159 hhcurveto
            77 callsubr
            return
          </CharString>
          <CharString index="464">
            136 44 callgsubr
            return
          </CharString>
          <CharString index="465">
            257 278.02000427246094 return
          </CharString>
          <CharString index="466">
            hvcurveto
            -48 callsubr
            return
          </CharString>
          <CharString index="467">
            hlineto
            9 callsubr
            return
          </CharString>
          <CharString index="468">
            rmoveto
            -434.02000427246094 return
          </CharString>
          <CharString index="469">
            vvcurveto
            12 callsubr
            return
          </CharString>
          <CharString index="470">
            584.9900054931641 return
          </CharString>
          <CharString index="471">
            34.02000427246094 return
          </CharString>
          <CharString index="472">
            217.99000549316406 return
          </CharString>
          <CharString index="473">
            66.00999450683594 return
          </CharString>
          <CharString index="474">
            -108.02000427246094 return
          </CharString>
          <CharString index="475">
            -147.99000549316406 return
          </CharString>
          <CharString index="476">
            28.020004272460938 return
          </CharString>
          <CharString index="477">
            -9.020004272460938 return
          </CharString>
          <CharString index="478">
            521 callsubr
            endchar
          </CharString>
          <CharString index="479">
            rmoveto
            28 5 136 -3 callgsubr
            -54 59 -86 vhcurveto
            -10 hlineto
            -38 return
          </CharString>
          <CharString index="480">
            1597.990005493164 rmoveto
            -161 -15 callsubr
            103 -128 229 491 callgsubr
            return
          </CharString>
          <CharString index="481">
            vlineto
            -163 -39 callsubr
            return
          </CharString>
          <CharString index="482">
            311.00999450683594 return
          </CharString>
          <CharString index="483">
            -9.990005493164062 return
          </CharString>
          <CharString index="484">
            -11.020004272460938 return
          </CharString>
          <CharString index="485">
            138.99000549316406 return
          </CharString>
          <CharString index="486">
            247.99000549316406 return
          </CharString>
          <CharString index="487">
            -99.97999572753906 return
          </CharString>
          <CharString index="488">
            196.99000549316406 return
          </CharString>
          <CharString index="489">
            -378 -280 135 759.9900054931641 307 callgsubr
            738.9999847412109 134 hstemhm
            return
          </CharString>
          <CharString index="490">
            rlineto
            64 -76 -115 36 -134 hhcurveto
            -277.00999450683594 -234.99000549316406 -209 -308 hvcurveto
            return
          </CharString>
          <CharString index="491">
            -669 rmoveto
            28 5 136 -3 callgsubr
            -54 59 -86 vhcurveto
            return
          </CharString>
          <CharString index="492">
            49 callsubr
            hstemhm
            return
          </CharString>
          <CharString index="493">
            417 callgsubr
            hstemhm
            return
          </CharString>
          <CharString index="494">
            -23 -40 callsubr
            433 116 return
          </CharString>
          <CharString index="495">
            rlineto
            -21 callsubr
            return
          </CharString>
          <CharString index="496">
            -50 17 -23 23 -14 vhcurveto
            return
          </CharString>
          <CharString index="497">
            372 callgsubr
            endchar
          </CharString>
          <CharString index="498">
            -183 -24 rlineto
            1099 0 callgsubr
            rmoveto
            -58 callsubr
            199 callsubr
            rlineto
            return
          </CharString>
          <CharString index="499">
            rmoveto
            380 callsubr
            245 vlineto
            512 callsubr
            205 -22 468 callgsubr
            hhcurveto
            return
          </CharString>
          <CharString index="500">
            -16 callgsubr
            248 callsubr
            11 -1 22 return
          </CharString>
          <CharString index="501">
            111 501 callgsubr
            return
          </CharString>
          <CharString index="502">
            113 callsubr
            246 return
          </CharString>
          <CharString index="503">
            126.97000122070312 246 return
          </CharString>
          <CharString index="504">
            4.0099945068359375 return
          </CharString>
          <CharString index="505">
            277.00999450683594 return
          </CharString>
          <CharString index="506">
            3.9900054931640625 return
          </CharString>
          <CharString index="507">
            262.97999572753906 return
          </CharString>
          <CharString index="508">
            -91.02000427246094 return
          </CharString>
          <CharString index="509">
            21.020004272460938 return
          </CharString>
          <CharString index="510">
            253.99000549316406 return
          </CharString>
          <CharString index="511">
            144.99000549316406 return
          </CharString>
          <CharString index="512">
            vlineto
            -162 177 callsubr
            560 -99 callsubr
            -170 17 rlineto
            return
          </CharString>
          <CharString index="513">
            115 callsubr
            rmoveto
            154 -18 740.9900054931641 1810.979995727539 -152 22 return
          </CharString>
          <CharString index="514">
            -121.97000122070312 239 267 181 396 callgsubr
            vhcurveto
            181 vlineto
            return
          </CharString>
          <CharString index="515">
            -57 -23 121 609.9900054931641 442 callgsubr
            561.9999847412109 118 return
          </CharString>
          <CharString index="516">
            rmoveto
            -22 -241 rlineto
            -29 -1 callsubr
            157 -46.97999572753906 216 hhcurveto
            return
          </CharString>
          <CharString index="517">
            -30 callsubr
            410.5 549 callgsubr
            return
          </CharString>
          <CharString index="518">
            242 -192.989990234375 427 callgsubr
            return
          </CharString>
          <CharString index="519">
            hvcurveto
            -15 callgsubr
            -63 rlineto
            33 22 43 86 return
          </CharString>
          <CharString index="520">
            1718.990005493164 rmoveto
            94.99000549316406 -82 return
          </CharString>
          <CharString index="521">
            0 43 155.97999572753906 426 callsubr
            return
          </CharString>
          <CharString index="522">
            169 239 -698 151 hhcurveto
            return
          </CharString>
          <CharString index="523">
            hstem
            326 callgsubr
            229 vstem
            return
          </CharString>
          <CharString index="524">
            2 callsubr
            -1 return
          </CharString>
          <CharString index="525">
            rlineto
            341 callgsubr
            return
          </CharString>
          <CharString index="526">
            106 -77 callsubr
            return
          </CharString>
          <CharString index="527">
            -55 callgsubr
            vhcurveto
            return
          </CharString>
          <CharString index="528">
            249.99000549316406 return
          </CharString>
          <CharString index="529">
            103.02000427246094 return
          </CharString>
          <CharString index="530">
            146.99000549316406 return
          </CharString>
          <CharString index="531">
            364.99000549316406 return
          </CharString>
          <CharString index="532">
            190.99000549316406 return
          </CharString>
          <CharString index="533">
            120.00999450683594 return
          </CharString>
          <CharString index="534">
            -21.020004272460938 return
          </CharString>
          <CharString index="535">
            -183.99000549316406 return
          </CharString>
          <CharString index="536">
            -50 490 callgsubr
            -3 16 0 13 78 callgsubr
            vvcurveto
            return
          </CharString>
          <CharString index="537">
            -69 212 callsubr
            275.00999450683594 376 callgsubr
            506 107 return
          </CharString>
          <CharString index="538">
            hstem
            -176 502.97999572753906 487.010009765625 233 354 127 vstem
            return
          </CharString>
          <CharString index="539">
            -109 vlineto
            109 callsubr
            304 callgsubr
            rlineto
            -867.9900054931641 vlineto
            return
          </CharString>
          <CharString index="540">
            75 vhcurveto
            1 hlineto
            return
          </CharString>
          <CharString index="541">
            512 -106 callsubr
            hlineto
            -150 23 rlineto
            871 vlineto
            138 25 rlineto
            return
          </CharString>
          <CharString index="542">
            314 callsubr
            225 return
          </CharString>
          <CharString index="543">
            -51 callgsubr
            418 callgsubr
            return
          </CharString>
          <CharString index="544">
            178.02000427246094 31.009994506835938 rlineto
            return
          </CharString>
          <CharString index="545">
            2 callgsubr
            hintmask 00000000
            return
          </CharString>
          <CharString index="546">
            418 callsubr
            vlineto
            return
          </CharString>
          <CharString index="547">
            rcurveline
            -25 callgsubr
            return
          </CharString>
          <CharString index="548">
            307.02000427246094 return
          </CharString>
          <CharString index="549">
            -99.99000549316406 return
          </CharString>
          <CharString index="550">
            115.00999450683594 return
          </CharString>
          <CharString index="551">
            81.97999572753906 return
          </CharString>
          <CharString index="552">
            -172.02000427246094 return
          </CharString>
          <CharString index="553">
            -258.99000549316406 return
          </CharString>
          <CharString index="554">
            557.9900054931641 return
          </CharString>
          <CharString index="555">
            356.99000549316406 return
          </CharString>
          <CharString index="556">
            305.00999450683594 return
          </CharString>
          <CharString index="557">
            352 callsubr
            1 hlineto
            105 return
          </CharString>
          <CharString index="558">
            9 callgsubr
            224 435 222 437 447 callgsubr
            return
          </CharString>
          <CharString index="559">
            hstemhm
            78 callsubr
            252 return
          </CharString>
          <CharString index="560">
            -42 140 callgsubr
            return
          </CharString>
          <CharString index="561">
            vhcurveto
            128 callgsubr
            105 return
          </CharString>
          <CharString index="562">
            -51 callgsubr
            vhcurveto
            return
          </CharString>
          <CharString index="563">
            -509.99000549316406 116 -108 43 458.99000549316406 117 return
          </CharString>
          <CharString index="564">
            122 callgsubr
            -57 callgsubr
            -51 callgsubr
            return
          </CharString>
          <CharString index="565">
            -540 -281 137 1655.990005493164 17 callgsubr
            hstem
            return
          </CharString>
          <CharString index="566">
            152 18 callsubr
            162.02000427246094 2 hvcurveto
            149 1 return
          </CharString>
          <CharString index="567">
            240 callgsubr
            hstemhm
            return
          </CharString>
          <CharString index="568">
            -30 callgsubr
            rmoveto
            1283.009994506836 vlineto
            -16 callsubr
            return
          </CharString>
          <CharString index="569">
            -78 callgsubr
            264.989990234375 return
          </CharString>
          <CharString index="570">
            107 callgsubr
            102 callsubr
            return
          </CharString>
          <CharString index="571">
            -51 callgsubr
            433 callsubr
            105 return
          </CharString>
          <CharString index="572">
            181 -96 callgsubr
            return
          </CharString>
          <CharString index="573">
            524.989990234375 return
          </CharString>
          <CharString index="574">
            288.99000549316406 return
          </CharString>
          <CharString index="575">
            -114.02000427246094 return
          </CharString>
          <CharString index="576">
            82.99000549316406 return
          </CharString>
          <CharString index="577">
            -329.99000549316406 return
          </CharString>
          <CharString index="578">
            -109.02000427246094 return
          </CharString>
          <CharString index="579">
            254.99000549316406 return
          </CharString>
          <CharString index="580">
            53.99000549316406 return
          </CharString>
          <CharString index="581">
            328.99000549316406 return
          </CharString>
          <CharString index="582">
            86.02000427246094 return
          </CharString>
          <CharString index="583">
            -40.02000427246094 return
          </CharString>
          <CharString index="584">
            119.00999450683594 return
          </CharString>
          <CharString index="585">
            -149.02000427246094 return
          </CharString>
          <CharString index="586">
            18.990005493164062 return
          </CharString>
          <CharString index="587">
            101 callsubr
            -102.00001525878906 13 callgsubr
            hstemhm
            return
          </CharString>
          <CharString index="588">
            hlineto
            105 127 callsubr
            -46 69 return
          </CharString>
          <CharString index="589">
            -325 -215 529 callgsubr
            -315.97999572753906 -286 return
          </CharString>
          <CharString index="590">
            -147 -18 rlineto
            endchar
          </CharString>
          <CharString index="591">
            hstemhm
            85 callgsubr
            return
          </CharString>
          <CharString index="592">
            71 -49 197 callgsubr
            -25 callgsubr
            return
          </CharString>
          <CharString index="593">
            vlineto
            130 callsubr
            -46 -46 378 callgsubr
            -49 hhcurveto
            return
          </CharString>
          <CharString index="594">
            vstem
            149 callsubr
            697 rmoveto
            return
          </CharString>
          <CharString index="595">
            280 187.989990234375 281 return
          </CharString>
          <CharString index="596">
            509 -436.989990234375 501 return
          </CharString>
          <CharString index="597">
            -198 -155.02000427246094 -138 return
          </CharString>
          <CharString index="598">
            359 callgsubr
            hstemhm
            return
          </CharString>
          <CharString index="599">
            121 -327 -401 rlineto
            return
          </CharString>
          <CharString index="600">
            rlineto
            -25 callgsubr
            return
          </CharString>
          <CharString index="601">
            199 callgsubr
            -83 60 return
          </CharString>
          <CharString index="602">
            104 callgsubr
            hvcurveto
            return
          </CharString>
          <CharString index="603">
            vlineto
            96 callsubr
            return
          </CharString>
          <CharString index="604">
            -49 callsubr
            -59 return
          </CharString>
          <CharString index="605">
            -95.00999450683594 rlineto
            return
          </CharString>
          <CharString index="606">
            hvcurveto
            199 callsubr
            return
          </CharString>
          <CharString index="607">
            538.0200042724609 43 return
          </CharString>
          <CharString index="608">
            99.99000549316406 return
          </CharString>
          <CharString index="609">
            478.97999572753906 return
          </CharString>
          <CharString index="610">
            216.99000549316406 return
          </CharString>
          <CharString index="611">
            -68.02000427246094 return
          </CharString>
          <CharString index="612">
            -47.99000549316406 return
          </CharString>
          <CharString index="613">
            -105.99000549316406 return
          </CharString>
          <CharString index="614">
            -700.9900054931641 return
          </CharString>
          <CharString index="615">
            96.99000549316406 return
          </CharString>
          <CharString index="616">
            12 0 10 5 vvcurveto
            return
          </CharString>
          <CharString index="617">
            -166.99000549316406 return
          </CharString>
          <CharString index="618">
            -124.00999450683594 return
          </CharString>
          <CharString index="619">
            75.97999572753906 return
          </CharString>
          <CharString index="620">
            201.99000549316406 return
          </CharString>
          <CharString index="621">
            567.9900054931641 return
          </CharString>
          <CharString index="622">
            -313.02000427246094 return
          </CharString>
          <CharString index="623">
            -15.020004272460938 return
          </CharString>
          <CharString index="624">
            -169 -19 rlineto
            return
          </CharString>
          <CharString index="625">
            111 111.00999450683594 15 callsubr
            return
          </CharString>
          <CharString index="626">
            298 rlineto
            -183 hlineto
            -271 197 callsubr
            return
          </CharString>
          <CharString index="627">
            445 callgsubr
            -24 rlineto
            endchar
          </CharString>
          <CharString index="628">
            -168 -24 rlineto
            return
          </CharString>
          <CharString index="629">
            -45 64 144 callgsubr
            369 callgsubr
            -82 return
          </CharString>
          <CharString index="630">
            157 29 rlineto
            107 -547 -107 vlineto
            167 -29 rlineto
            return
          </CharString>
          <CharString index="631">
            999 vlineto
            -51 231 callsubr
            return
          </CharString>
          <CharString index="632">
            507 449 callsubr
            rmoveto
            return
          </CharString>
          <CharString index="633">
            111 -1044.009994506836 vlineto
            return
          </CharString>
          <CharString index="634">
            -531 -363 1962 hstem
            return
          </CharString>
          <CharString index="635">
            79.99000549316406 return
          </CharString>
          <CharString index="636">
            -204.99000549316406 return
          </CharString>
          <CharString index="637">
            174.97999572753906 return
          </CharString>
          <CharString index="638">
            -197.02000427246094 return
          </CharString>
          <CharString index="639">
            98.97999572753906 return
          </CharString>
          <CharString index="640">
            -289.02000427246094 return
          </CharString>
          <CharString index="641">
            -111.97999572753906 return
          </CharString>
          <CharString index="642">
            868.9900054931641 return
          </CharString>
          <CharString index="643">
            123.49000549316406 return
          </CharString>
          <CharString index="644">
            244.97999572753906 return
          </CharString>
          <CharString index="645">
            299 callsubr
            142 -153 return
          </CharString>
          <CharString index="646">
            121.5 559.989990234375 129 return
          </CharString>
          <CharString index="647">
            641 0 117 891.9799957275391 154 return
          </CharString>
          <CharString index="648">
            203 callsubr
            rlineto
            return
          </CharString>
          <CharString index="649">
            103 callsubr
            -92 return
          </CharString>
          <CharString index="650">
            rlineto
            131 callsubr
            return
          </CharString>
          <CharString index="651">
            rlineto
            367 callsubr
            return
          </CharString>
          <CharString index="652">
            1136.990005493164 rmoveto
            return
          </CharString>
          <CharString index="653">
            hstemhm
            9 callgsubr
            return
          </CharString>
          <CharString index="654">
            198 callgsubr
            rlineto
            return
          </CharString>
          <CharString index="655">
            hstem
            -34 callsubr
            259.99000549316406 return
          </CharString>
          <CharString index="656">
            2 callsubr
            -192 229 209 return
          </CharString>
          <CharString index="657">
            1 hlineto
            105 51 71 89 -41 callgsubr
            return
          </CharString>
          <CharString index="658">
            30 rlineto
            98 -593 -98 vlineto
            198 -31 rlineto
            return
          </CharString>
          <CharString index="659">
            -10.009994506835938 hvcurveto
            827 hlineto
            endchar
          </CharString>
          <CharString index="660">
            388 callsubr
            hlineto
            return
          </CharString>
          <CharString index="661">
            -110.99000549316406 111 return
          </CharString>
          <CharString index="662">
            -19 141 callsubr
            return
          </CharString>
          <CharString index="663">
            67 167 callsubr
            return
          </CharString>
          <CharString index="664">
            186.97999572753906 return
          </CharString>
          <CharString index="665">
            367.97999572753906 return
          </CharString>
          <CharString index="666">
            vlineto
            -261 -24 rlineto
            return
          </CharString>
          <CharString index="667">
            565.9900054931641 return
          </CharString>
          <CharString index="668">
            -456.99000549316406 return
          </CharString>
          <CharString index="669">
            536.9900054931641 return
          </CharString>
          <CharString index="670">
            138.989990234375 return
          </CharString>
          <CharString index="671">
            128.97999572753906 return
          </CharString>
          <CharString index="672">
            556.9900054931641 return
          </CharString>
          <CharString index="673">
            323.99000549316406 return
          </CharString>
          <CharString index="674">
            208.02000427246094 return
          </CharString>
          <CharString index="675">
            544.0099945068359 return
          </CharString>
          <CharString index="676">
            -875.9900054931641 return
          </CharString>
          <CharString index="677">
            591.9900054931641 return
          </CharString>
          <CharString index="678">
            -228.99000549316406 return
          </CharString>
          <CharString index="679">
            110.97999572753906 return
          </CharString>
          <CharString index="680">
            0 488 callgsubr
            return
          </CharString>
          <CharString index="681">
            17 rlineto
            524 callsubr
            return
          </CharString>
          <CharString index="682">
            vlineto
            -169 -39 callgsubr
            return
          </CharString>
          <CharString index="683">
            63 63 364 callsubr
            vhcurveto
            endchar
          </CharString>
          <CharString index="684">
            -169 -24 rlineto
            return
          </CharString>
        <CharString name=".notdef">
          357 0 251.99000549316406 906.989990234375 257 hstem
          176.99000549316406 262 893.989990234375 260.00999450683594 vstem
          176.99000549316406 1415.990005493164 rmoveto
          -1415.990005493164 1416.009994506836 1415.990005493164 -1416.009994506836 vlineto
          382 -1164 rmoveto
          220 callsubr
          135 343 317.99000549316406 -344 338 114 116 333 -351.99000549316406 328 350.99000549316406 -46 callsubr
          -116 -348 -333.99000549316406 348 -343 172 callsubr
          -113 -337 353.00999450683594 -324.02000427246094 -353.00999450683594 rlineto
          endchar
        </CharString>
        <CharString name="A">
          -84 callsubr
          34 callgsubr
          hintmask 00000000
          hintmask 11010100
          -34 108.99000549316406 -105 callsubr
          hintmask 11101000
          -75 callgsubr
          hintmask 11010100
          -507 hlineto
          endchar
        </CharString>
        <CharString name="AE">
          148 callgsubr
          431 callsubr
          643.9900054931641 106.99000549316406 -83 callsubr
        </CharString>
        <CharString name="AEacute">
          148 callgsubr
          111.02000427246094 43 24.990005493164062 43 431 callsubr
          826 121 callsubr
          88.99000549316406 28 237.02000427246094 123 83 callsubr
          101 -153 127 440 callsubr
          -331 -311.00999450683594 rlineto
          -182 -1594 -83 callsubr
        </CharString>
        <CharString name="Aacute">
          -84 callsubr
          99.00999450683594 15 callsubr
          34 callgsubr
          hintmask 11011110
          514 callsubr
          121 callsubr
          89 306 callsubr
          78 101 -153 -33 callsubr
          hintmask 11011101
          -601.9900054931641 -1592 -105 callsubr
          hintmask 11101110
          -75 callgsubr
          hintmask 11011101
          -507 hlineto
          endchar
        </CharString>
        <CharString name="Abreve">
          -84 callsubr
          108.989990234375 169 356 callgsubr
          -89 123 437.97999572753906 123 hintmask 11011011
          369.99000549316406 298 callgsubr
          -41 callsubr
          -139 225.02000427246094 215.97999572753906 123 120 callgsubr
          -2 -12 vhcurveto
          -59 -6.9799957275390625 -43 291 callsubr
          -46 100 59 370 callsubr
          359 callsubr
          509 callsubr
          -121 hlineto
          -2 102 callgsubr
          0 115 callgsubr
          115 callgsubr
          vvcurveto
          hintmask 11011101
          -403.99000549316406 -1846.990005493164 -105 callsubr
          hintmask 11101011
          -75 callgsubr
          hintmask 11011101
          -507 hlineto
          endchar
        </CharString>
        <CharString name="Acircumflex">
          -84 callsubr
          34 callgsubr
          hintmask 11011000
          349 1712.990005493164 rmoveto
          85 41 callsubr
          -271 197 callsubr
          hintmask 11010100
          -382.99000549316406 -1604 -105 callsubr
          hintmask 11101000
          -75 callgsubr
          hintmask 11010100
          -507 hlineto
          endchar
        </CharString>
        <CharString name="Adieresis">
          -76 callsubr
        </CharString>
        <CharString name="Agrave">
          -84 callsubr
          99.00999450683594 15 callsubr
          34 callgsubr
          hintmask 11011110
          395 37 callgsubr
          -1 hlineto
          -151.97999572753906 -127 rlineto
          hintmask 11011101
          -428.99000549316406 -1776 -105 callsubr
          hintmask 11101110
          -75 callgsubr
          hintmask 11011101
          -507 hlineto
          endchar
        </CharString>
        <CharString name="Amacron">
          -84 callsubr
          211.989990234375 158 34 callgsubr
          -27.010009765625 515 callgsubr
          hintmask 00000000
          hintmask 11011001
          431.97999572753906 60 callgsubr
          hintmask 11011010
          -465.97999572753906 -1794.990005493164 -105 callsubr
          hintmask 11101100
          -75 callgsubr
          hintmask 11011010
          -507 hlineto
          endchar
        </CharString>
        <CharString name="Aogonek">
          -3 358 callgsubr
          424 callsubr
          -82 callsubr
          356 callgsubr
          400 280 callsubr
          hintmask 11101110
          -34 497 callgsubr
          1 -103 callsubr
          rlineto
          491.99000549316406 -106 callsubr
          hlineto
          -171 24 91 291.97999572753906 rlineto
          588 hlineto
          95.00999450683594 -291.97999572753906 -163 -39 callgsubr
          238 vlineto
          -150 -60 -128 150 callsubr
          170 callsubr
          vvcurveto
          150 callsubr
          127 -54 134 247 callsubr
          97 -64 callsubr
          43 57 vhcurveto
          110 vlineto
          130 callsubr
          -46 -47 378 callgsubr
          -37 callgsubr
          hhcurveto
          508 callgsubr
          150 callgsubr
          479 callgsubr
          87 77 95.00999450683594 112 130 55.99000549316406 hvcurveto
          157 -106 callsubr
          hlineto
          -127.02000427246094 24 -496.99000549316406 1401 rlineto
          -238 hlineto
          -493 -1401 -126.99000549316406 -24 rlineto
          452.9700012207031 443 rmoveto
          hintmask 11110110
          -75 callgsubr
          hintmask 11101110
          -507 hlineto
          endchar
        </CharString>
        <CharString name="Aring">
          4 212 callsubr
          315.989990234375 127.00999450683594 1362.000015258789 123 callgsubr
          356 callgsubr
          -78.010009765625 307 callgsubr
          346.02000427246094 159 hintmask 11101100
          1320.979995727539 133 rmoveto
          -492 1385.990005493164 125.00999450683594 31 91 82 2 125.00999450683594 rlinecurve
          149 -49 callgsubr
          131 callsubr
          371 callgsubr
          -2 534 callsubr
          62.02000427246094 -96.02000427246094 140 -35 rrcurveto
          hintmask 11110100
          -488 -1386.990005493164 -126.99000549316406 -24 1 -103 callsubr
          rlineto
          491.99000549316406 -106 callsubr
          hlineto
          -171 24 91 291.97999572753906 rlineto
          588 hlineto
          95.00999450683594 -291.97999572753906 -163 -39 callgsubr
          549 -99 callsubr
          hintmask 11101100
          -127.02000427246094 24 rlineto
          -604 1781 rmoveto
          1 hlineto
          123 47 17 callsubr
          158 callsubr
          -93 -47 -53 511 callsubr
          hvcurveto
          -1 hlineto
          -122.99000549316406 229 callgsubr
          77 444 callsubr
          95.00999450683594 53 56 122 hvcurveto
          -298 -1362 rmoveto
          -75 callgsubr
          -507 hlineto
          endchar
        </CharString>
        <CharString name="Atilde">
          -84 callsubr
          149.989990234375 158 9 156.99000549316406 34 callgsubr
          hintmask 00000000
          hintmask 11010110
          562 callsubr
          215 callgsubr
          hintmask 11011010
          141 85 100 callsubr
          -32 -83 -93 -114 151 callgsubr
          1 callsubr
          510 callsubr
          hhcurveto
          hintmask 11010110
          -153 131 callsubr
          276 callsubr
          91 hhcurveto
          hintmask 11011001
          -570.9799957275391 -1741.990005493164 -105 callsubr
          hintmask 11101010
          -75 callgsubr
          hintmask 11011001
          -507 hlineto
          endchar
        </CharString>
        <CharString name="B">
          -76 callgsubr
        </CharString>
        <CharString name="C">
          -78 -23 58 callsubr
          vstem
          -34 callsubr
          762 rmoveto
          -492.00999450683594 267 -292.97999572753906 481.02000427246094 221.99000549316406 72 71.97999572753906 7 106 vhcurveto
          -101 callsubr
          hvcurveto
          endchar
        </CharString>
        <CharString name="CR">
          -1413 endchar
        </CharString>
        <CharString name="Cacute">
          353 callgsubr
          95.01998901367188 43 24.990005493164062 43 278 callgsubr
          vstem
          639 6 callgsubr
          -573.0099945068359 -938.9900054931641 rmoveto
          -492.00999450683594 267 -292.97999572753906 481.02000427246094 221.99000549316406 72 71.97999572753906 7 106 vhcurveto
          -101 callsubr
          hvcurveto
          endchar
        </CharString>
        <CharString name="Ccaron">
          353 callgsubr
          137.99998474121094 43 -43 148 hstemhm
          226 callsubr
          hintmask 11101000
          438.99000549316406 54 callgsubr
          183 hlineto
          hintmask 11011000
          106 callgsubr
          -255.02000427246094 189 rlineto
          hintmask 11101000
          -91 -61 rlineto
          -373 -1189.990005493164 rmoveto
          -492.00999450683594 267 -292.97999572753906 481.02000427246094 221.99000549316406 72 71.97999572753906 7 106 vhcurveto
          -101 callsubr
          hvcurveto
          endchar
        </CharString>
        <CharString name="Ccedilla">
          -70 callgsubr
        </CharString>
        <CharString name="Ccircumflex">
          -78 -23 58 callsubr
          vstem
          419.97999572753906 227 callsubr
          85.02000427246094 41 callsubr
          -271.02000427246094 197 callsubr
          -354 -950.9900054931641 rmoveto
          -492.00999450683594 267 -292.97999572753906 481.02000427246094 221.99000549316406 72 71.97999572753906 7 106 vhcurveto
          -101 callsubr
          hvcurveto
          endchar
        </CharString>
        <CharString name="Cdotaccent">
          353 callgsubr
          155.00999450683594 15 callgsubr
          226 callsubr
          303.97999572753906 286 hintmask 11011100
          640.9799957275391 -11 callsubr
          294 callgsubr
          50 68 88 hvcurveto
          hintmask 11101100
          34 callsubr
          hintmask 11011100
          -98 472 callgsubr
          8 callsubr
          -575 -1065.990005493164 rmoveto
          -492.00999450683594 267 -292.97999572753906 481.02000427246094 221.99000549316406 72 71.97999572753906 7 106 vhcurveto
          -101 callsubr
          hvcurveto
          endchar
        </CharString>
        <CharString name="D">
          286 callsubr
          345 callsubr
          736 255.00999450683594 hintmask 00000000
          hintmask 01101100
          94.99000549316406 108.99000549316406 71 callgsubr
          hintmask 10101100
          -35 callsubr
          hintmask 01011100
          -14 callsubr
          -1251.990005493164 vlineto
          hintmask 01101100
          577 callsubr
          hintmask 10101100
          -35 callgsubr
          endchar
        </CharString>
        <CharString name="Dcaron">
          286 callsubr
          513 callgsubr
          43 -43 148 345 callsubr
          736 255.00999450683594 hintmask 10101011
          457.99000549316406 54 callgsubr
          183 hlineto
          hintmask 10100111
          256.97999572753906 22 callsubr
          hintmask 10101011
          -91 -61 rlineto
          hintmask 01101011
          -363 -1843 71 callgsubr
          hintmask 10101011
          -35 callsubr
          hintmask 01011011
          -14 callsubr
          -1251.990005493164 vlineto
          hintmask 01101011
          577 callsubr
          hintmask 10101011
          -35 callgsubr
          endchar
        </CharString>
        <CharString name="Dcroat">
          148 -34 callgsubr
          -41 callsubr
          -104 104 611.9799957275391 129 574.010009765625 70 callgsubr
          hintmask 10110110
          -77 callsubr
          844.9799957275391 rmoveto
          -129 156 vlineto
          hintmask 01110110
          -582.9900054931641 575 callsubr
          198 callsubr
          vlineto
          -37 callsubr
          1 callgsubr
          -14 -15 callsubr
          100 hvcurveto
          hintmask 10110110
          -35 callsubr
          hintmask 10101110
          -14 callsubr
          -540 vlineto
          hintmask 10110110
          -156 hlineto
          390 hmoveto
          561.0099945068359 -62 callgsubr
          593 338 129 -338 vlineto
          endchar
        </CharString>
        <CharString name="E">
          -72 callgsubr
          335 callgsubr
          95.99000549316406 108.99000549316406 -72 callsubr
          -104 callgsubr
          371 callsubr
        </CharString>
        <CharString name="Eacute">
          -72 callgsubr
          111.010009765625 43 24.990005493164062 43 335 callgsubr
          548.9900054931641 121 callsubr
          89 306 callsubr
          78 101 -153 -33 callsubr
          -453 -1592 -72 callsubr
          -104 callgsubr
          371 callsubr
        </CharString>
        <CharString name="Ebreve">
          -72 callgsubr
          120.99000549316406 169 236 callgsubr
          -144.989990234375 123 377 129 -68.010009765625 123 hintmask 00000000
          hintmask 11110101
          354 298 callgsubr
          -41 callsubr
          -139 225 40 callsubr
          -165.99000549316406 -46.02000427246094 100 59 -9 359 callsubr
          509 callsubr
          -121.02000427246094 hlineto
          -15 callsubr
          102 callgsubr
          0 115 callgsubr
          115 callgsubr
          vvcurveto
          -258.00999450683594 -1846.990005493164 -72 callsubr
          rlineto
          hintmask 11111010
          -104 callgsubr
          hintmask 11110101
          371 callsubr
        </CharString>
        <CharString name="Ecaron">
          -72 callgsubr
          -40 callsubr
          43 -43 148 hstemhm
          112 callgsubr
          hintmask 11110110
          352.99000549316406 54 callgsubr
          183 hlineto
          hintmask 11101110
          256.97999572753906 22 callsubr
          hintmask 11110110
          -91 -61 rlineto
          -257 -1843 -72 callsubr
          -104 callgsubr
          371 callsubr
        </CharString>
        <CharString name="Ecircumflex">
          -72 callgsubr
          335 callgsubr
          333.99000549316406 227 callsubr
          -19 callsubr
          -59 278.02000427246094 53 callgsubr
          -271.00999450683594 197 callsubr
          -238 -1604 -72 callsubr
          -104 callgsubr
          371 callsubr
        </CharString>
        <CharString name="Edieresis">
          -72 callgsubr
          165.00001525878906 295.99000549316406 236 callgsubr
          -191.989990234375 390 callgsubr
          -233 129 hintmask 00000000
          hintmask 11110110
          307 457 callsubr
          75 vhcurveto
          1 481 callsubr
          171 callsubr
          -10 callgsubr
          -87.99000549316406 hvcurveto
          -1 hlineto
          144 callgsubr
          -37 callgsubr
          -42 callsubr
          -711 -1714 -72 callsubr
          rlineto
          hintmask 11111001
          -104 callgsubr
          hintmask 11110110
          371 callsubr
        </CharString>
        <CharString name="Edotaccent">
          -72 callgsubr
          171.00001525878906 15 callgsubr
          124 callgsubr
          235 55 286 14.010009765625 129 hintmask 00000000
          hintmask 11101110
          553.9799957275391 69 callsubr
          hintmask 11110110
          34 callsubr
          hintmask 11101110
          -98 472 callgsubr
          8 callsubr
          hintmask 11101101
          -458 -1718.990005493164 -72 callsubr
          -104 callgsubr
          371 callsubr
        </CharString>
        <CharString name="Egrave">
          -72 callgsubr
          111.010009765625 43 24.990005493164062 43 335 callgsubr
          355.97999572753906 37 callgsubr
          -1 hlineto
          -152 -127 rlineto
          -260 -1776 -72 callsubr
          -104 callgsubr
          371 callsubr
        </CharString>
        <CharString name="Emacron">
          -72 callgsubr
          266 callsubr
          158 236 callgsubr
          -83 515 callgsubr
          -131.97999572753906 129 hintmask 00000000
          hintmask 11110100
          415.99000549316406 60 callgsubr
          -320 -1794.990005493164 -72 callsubr
          rlineto
          hintmask 11111010
          -104 callgsubr
          hintmask 11110100
          371 callsubr
        </CharString>
        <CharString name="Eng">
          200 0 -46 callsubr
          1269 134 -108.010009765625 68 callgsubr
          257 callsubr
          152 856 145 callsubr
          hintmask 10111000
          532 callsubr
          551 callgsubr
          507 169 callgsubr
          vlineto
          265 callsubr
          24 rlineto
          1149.009994506836 vlineto
          140 -272.02000427246094 636.9900054931641 -983 -13 108 callsubr
          -18 -36 69 callgsubr
          -30 rlinecurve
          150 callgsubr
          442 callsubr
          -104 -65 -123 -32 54 -88 rcurveline
          141 340 callsubr
          115 47 115 127 rrcurveto
          76 87 306 callgsubr
          115.97999572753906 373 vvcurveto
          hintmask 11011000
          985.0099945068359 vlineto
          hintmask 10111000
          168 -64 callsubr
          rlineto
          68 callgsubr
          -493.02000427246094 0 callgsubr
          vlineto
          hintmask 11011000
          174.02000427246094 212 callgsubr
          -1123 vlineto
          -144.02000427246094 274 rlineto
          hintmask 10111000
          -629.9900054931641 983 rlineto
          -401.02000427246094 -104 hlineto
          hintmask 11011000
          167.02000427246094 -28 rlineto
          -1259 vlineto
          hintmask 10111000
          520 callsubr
        </CharString>
        <CharString name="Eogonek">
          -74 358 callgsubr
          424 callsubr
          17 callgsubr
          584.5 126.52999877929688 555.5 120.47999572753906 236 callgsubr
          231 368 callgsubr
          -83.97999572753906 129 hintmask 11111010
          333 callgsubr
          921.0099945068359 vlineto
          hintmask 11111100
          -162 217 callgsubr
          283 callgsubr
          -140 170 callsubr
          vvcurveto
          150 callsubr
          125.00999450683594 -54 474 callgsubr
          247 callsubr
          -15 callgsubr
          -64 callsubr
          43 377 callgsubr
          vhcurveto
          110 vlineto
          130 callsubr
          151 callgsubr
          505 callsubr
          378 callgsubr
          -48 hhcurveto
          -83 -65 35 86 364 callgsubr
          219 callgsubr
          139.02000427246094 134 145 callgsubr
          hvcurveto
          122 callsubr
          hlineto
          59 358.99000549316406 -128 18 callgsubr
          -113 -251 -549.9900054931641 -22 rlineto
          598 vlineto
          hintmask 11111010
          326 -5 29 -175.99000549316406 rlineto
          129 473.99000549316406 -129 hlineto
          105 callgsubr
          -325 -6 456 callgsubr
          478.99000549316406 -13 62 -190.02000427246094 rlineto
          129 hlineto
          -28.020004272460938 317.00999450683594 rlineto
          -1042 -111 hlineto
          -4 callsubr
          371 callsubr
        </CharString>
        <CharString name="Eth">
          148 -34 callgsubr
          -41 callsubr
          -104 104 630.9799957275391 116 568.010009765625 70 callgsubr
          hintmask 10110110
          321 callgsubr
          850.9799957275391 rmoveto
          -116 152 vlineto
          hintmask 01110110
          -601.9900054931641 575 callsubr
          198 callsubr
          vlineto
          -37 callsubr
          1 callgsubr
          -14 -15 callsubr
          100 hvcurveto
          hintmask 10110110
          -35 callsubr
          hintmask 10101110
          -14 callsubr
          -534 vlineto
          hintmask 10110110
          -152 hlineto
          386.00999450683594 hmoveto
          555.0099945068359 -62 callgsubr
          612 340.99000549316406 116 -340.99000549316406 vlineto
          endchar
        </CharString>
        <CharString name="Euro">
          145 -28 572 callsubr
          453 122 247.010009765625 122 400.989990234375 122 hstem
          281 callgsubr
          249.00999450683594 vstem
          76.97999572753906 657.9799957275391 rmoveto
          -122 217 vlineto
          -343.97999572753906 53 203 -220 346.99000549316406 hhcurveto
          262 112 18 callsubr
          4 87 hvcurveto
          23 247 -117 23 303 callsubr
          -158 rlineto
          -62 -69.02000427246094 -73.99000549316406 507 callgsubr
          -105 hhcurveto
          -251.99000549316406 425 callgsubr
          178.02000427246094 274.97999572753906 -36 hvcurveto
          513 122 -524 hlineto
          -15 callsubr
          36 0 37 39 vvcurveto
          47 -49 callgsubr
          45 147 callgsubr
          43 vhcurveto
          549.9900054931641 122 -535 hlineto
          263 48 -13 callsubr
          138 209 hhcurveto
          112 106 -46 callgsubr
          -44 40 hvcurveto
          45 -205.99000549316406 rlineto
          125.00999450683594 hlineto
          18 321.97999572753906 rlineto
          14 -83 107 callsubr
          62 531 callsubr
          hhcurveto
          -333.99000549316406 -241 -191 -332 -87 hvcurveto
          -217.99000549316406 -122 170 callgsubr
          hlineto
          178 callsubr
          -56 219 callsubr
          -60 -62 vvcurveto
          -24 0 -23 1 -22.020004272460938 vhcurveto
          -204 hlineto
          endchar
        </CharString>
        <CharString name="F">
          330 callsubr
          236 callgsubr
          388 123 hintmask 11011100
          98.97999572753906 108.99000549316406 119 callgsubr
          hintmask 11101100
          66 -222 rlineto
          145 hlineto
          hintmask 11011100
          289 callsubr
        </CharString>
        <CharString name="G">
          109 -23 -17 callgsubr
          hstem
          175 callgsubr
          vstem
          87 738 -96 callsubr
        </CharString>
        <CharString name="Gbreve">
          114 -23 -17 callgsubr
          104 169 hstemhm
          93 269.97999572753906 134 489 callgsubr
          -47 124 callsubr
          hintmask 11111101
          496.99000549316406 298 callgsubr
          120 -139 225 vhcurveto
          hintmask 11111110
          216 291 callgsubr
          -2 -67 callsubr
          hvcurveto
          179 callsubr
          hlineto
          -5 0 103 callgsubr
          -15 callsubr
          -12 vhcurveto
          -59 -7 135 callgsubr
          -121 hlineto
          hintmask 11111101
          -2 102 callgsubr
          0 115 callgsubr
          115 callgsubr
          vvcurveto
          -403.99000549316406 -1217.990005493164 -6 callsubr
        </CharString>
        <CharString name="Gcaron">
          109 -23 -17 callgsubr
          137 43 -43 148 hstemhm
          175 callgsubr
          hintmask 11110110
          489.97999572753906 54 callgsubr
          183 hlineto
          hintmask 11101110
          106 callgsubr
          -255 189 rlineto
          hintmask 11110110
          401 callsubr
          -61 rlineto
          -402.99000549316406 -1213.990005493164 -96 callsubr
        </CharString>
        <CharString name="Gcircumflex">
          109 -23 -17 callgsubr
          hstem
          175 callgsubr
          vstem
          471 119 callsubr
          -271 -300.00999450683594 rlineto
          -384 -974.9900054931641 -96 callsubr
        </CharString>
        <CharString name="Gcommaaccent">
          116 14 callsubr
          437 -17 callgsubr
          hstemhm
          528 callgsubr
          270 399 187 185 235 hintmask 01111101
          528 callgsubr
          738 361 callsubr
          269 279 callgsubr
          53 callsubr
          vhcurveto
          539.0099945068359 vlineto
          117 21 rlineto
          129 -597 -129 vlineto
          244.99000549316406 -23 rlineto
          -438 vlineto
          -58 -28 callgsubr
          -118.00999450683594 -27 -113 hhcurveto
          -331 -148.99000549316406 338 357.99000549316406 418.02000427246094 205 248 callsubr
          287.99000549316406 174 70 -41 -24 24 hvcurveto
          54 -237 rlineto
          -40 callsubr
          hlineto
          20.009994506835938 355 rlineto
          17 -71 -194.99000549316406 47 -214.02000427246094 hhcurveto
          -437.99000549316406 429 callgsubr
          -295 -506 hvcurveto
          hintmask 10111111
          692 -1298 207 callgsubr
          hintmask 01111111
          163 callsubr
          104 callgsubr
          4 callgsubr
          123 callsubr
          258 callgsubr
          rlineto
          hintmask 10111111
          63 callgsubr
          241 callsubr
          -16 callsubr
          hlineto
          endchar
        </CharString>
        <CharString name="Gdotaccent">
          114 -23 -17 callgsubr
          154.010009765625 15 callgsubr
          93 269.97999572753906 335.010009765625 450 callgsubr
          150.02000427246094 124 callsubr
          hintmask 11101111
          698 -11 callsubr
          77.99000549316406 413 callgsubr
          hintmask 11110111
          34 callsubr
          hintmask 11101111
          -98 -50 8 callsubr
          -605 -1089.990005493164 -6 callsubr
        </CharString>
        <CharString name="Gtilde">
          109 -23 -17 callgsubr
          145 296 callgsubr
          175 callgsubr
          hintmask 00000000
          hintmask 11101110
          658.9799957275391 215 callgsubr
          hintmask 11110110
          141 85 100 callsubr
          -32 -83 -93 -114 -45 527 callgsubr
          hintmask 11101110
          363 callgsubr
          -107 276 callsubr
          266 callgsubr
          hhcurveto
          hintmask 11110110
          -571.9900054931641 -1112.990005493164 -96 callsubr
        </CharString>
        <CharString name="H">
          287 212 callsubr
          605 185 callgsubr
          99.97999572753906 108.99000549316406 -66 callsubr
        </CharString>
        <CharString name="Hbar">
          286 176 callsubr
          478.989990234375 131 280.010009765625 321 callgsubr
          276.02000427246094 111 hstemhm
          264.99000549316406 233 702.989990234375 234 hintmask 01111110
          52 1134.979995727539 rmoveto
          -111.99000549316406 213 -890 vlineto
          hintmask 10111110
          521 callsubr
          hintmask 01111110
          -103 callsubr
          574 vlineto
          hintmask 10111110
          -99 callsubr
          hintmask 01111110
          -173 24 rlineto
          478.99000549316406 703 -478.99000549316406 vlineto
          hintmask 10111110
          -162 -25 rlineto
          hintmask 01111110
          -55 callgsubr
          557 vlineto
          hintmask 10111110
          -9 callsubr
          -161 -64 callsubr
          rlineto
          889.0200042724609 217 111.99000549316406 -217 251 vlineto
          162 -79 callgsubr
          -559 -32 callsubr
          163 -58 callgsubr
          -251 -703 251 496 callsubr
          -79 callgsubr
          -566.9900054931641 -32 callsubr
          162 -92 callsubr
          rlineto
          -250 vlineto
          hintmask 01111110
          -213 hlineto
          1148.990005493164 -391.99000549316406 rmoveto
          -703 280 703 -280 hlineto
          endchar
        </CharString>
        <CharString name="Hcircumflex">
          287 212 callsubr
          605 185 callgsubr
          485.99000549316406 -5 callgsubr
          -386.00999450683594 -1604 -66 callsubr
        </CharString>
        <CharString name="I">
          -81 callsubr
        </CharString>
        <CharString name="I.uc">
          -40 callgsubr
        </CharString>
        <CharString name="IJ">
          194 -74 callsubr
          76 callsubr
          585.0099945068359 233 hintmask 00000000
          hintmask 10111000
          552 callgsubr
          hintmask 01111000
          118 callgsubr
          hintmask 10111000
          -56 callsubr
          vlineto
          hintmask 01111000
          -101 callgsubr
          hintmask 10111000
          -183 -24 rlineto
          703 -385 rmoveto
          377 callgsubr
          -92 rlineto
          hintmask 01111000
          64 callsubr
          hintmask 10111000
          -45 -143 179 callsubr
          -103 -95 -25 rrcurveto
          endchar
        </CharString>
        <CharString name="IJ_acutecomb">
          194 -74 callsubr
          106.00999450683594 43 -41.00999450683594 43 23 43 -40.99000549316406 43 76 callsubr
          585.0099945068359 233 hintmask 0110101110000000
          221 1698 rmoveto
          80 504 callsubr
          rlineto
          1 hlineto
          88.99000549316406 369 callsubr
          237.02000427246094 122.99000549316406 83 callsubr
          101 -153 127 440 callsubr
          -331 -310.99000549316406 rlineto
          hintmask 1011010110000000
          799.9900054931641 -2 rmoveto
          80 473 callgsubr
          rlineto
          1 hlineto
          89 306 callsubr
          63 callgsubr
          149 callgsubr
          -153 127.02000427246094 rcurveline
          -1 hlineto
          -331 -311.00999450683594 rlineto
          -909 -1587 rmoveto
          hintmask 0110101110000000
          118 callgsubr
          hintmask 1010101110000000
          -56 callsubr
          vlineto
          hintmask 0110101110000000
          -101 callgsubr
          hintmask 1011010110000000
          -183 -24 rlineto
          703 -385 rmoveto
          377 callgsubr
          -92 rlineto
          hintmask 0110101110000000
          64 callsubr
          hintmask 1011010110000000
          -45 -143 179 callsubr
          -103 -95 -25 rrcurveto
          endchar
        </CharString>
        <CharString name="Iacute">
          -586 -74 callsubr
          524 callgsubr
          294.99000549316406 235.99000549316406 hintmask 01111100
          270.99000549316406 99 callsubr
          hintmask 10111100
          -159 -1592 rmoveto
          hintmask 01111100
          118 callgsubr
          hintmask 10111100
          -56 callsubr
          vlineto
          hintmask 01111100
          -101 callgsubr
          hintmask 10111100
          310 callsubr
        </CharString>
        <CharString name="Ibreve">
          -586 -74 callsubr
          120.989990234375 169 hstemhm
          -1 callsubr
          123 99 2 callgsubr
          103.00999450683594 367 callgsubr
          hintmask 01111110
          -1 callsubr
          298 callgsubr
          -41 callsubr
          -139 225.02000427246094 216 122.99000549316406 120 callgsubr
          -15 callsubr
          -12 vhcurveto
          -59 -7 135 callgsubr
          -121 hlineto
          -2 102 callgsubr
          0 115 callgsubr
          115 callgsubr
          vvcurveto
          hintmask 10111110
          399 callgsubr
          -1846.990005493164 rmoveto
          hintmask 01111110
          118 callgsubr
          hintmask 10111110
          -56 callsubr
          vlineto
          hintmask 01111110
          -101 callgsubr
          hintmask 10111110
          310 callsubr
        </CharString>
        <CharString name="Icircumflex">
          19 callgsubr
          hintmask 01110000
          52 119 callsubr
          -271 -300.00999450683594 rlineto
          hintmask 10110000
          228 callgsubr
          -1604 -69 callsubr
        </CharString>
        <CharString name="Idieresis">
          -59 callsubr
        </CharString>
        <CharString name="Idotaccent">
          -40 callgsubr
        </CharString>
        <CharString name="Igrave">
          -586 -74 callsubr
          524 callgsubr
          294.99000549316406 235.99000549316406 hintmask 01111100
          98 37 callgsubr
          -58 callsubr
          hlineto
          -152 -127 rlineto
          hintmask 10111100
          -67 callsubr
          -1776 rmoveto
          hintmask 01111100
          118 callgsubr
          hintmask 10111100
          -56 callsubr
          vlineto
          hintmask 01111100
          -101 callgsubr
          hintmask 10111100
          310 callsubr
        </CharString>
        <CharString name="Imacron">
          -586 -74 callsubr
          223.989990234375 158 hstemhm
          17 callgsubr
          515 callgsubr
          -409.97999572753906 438 callsubr
          hintmask 10111000
          17 callgsubr
          60 callgsubr
          -23 -1794.990005493164 rmoveto
          hintmask 01111000
          -103 callsubr
          vlineto
          hintmask 01110100
          605 hlineto
          hintmask 10110100
          -56 callsubr
          vlineto
          hintmask 01110100
          -101 callgsubr
          hintmask 10111000
          310 callsubr
        </CharString>
        <CharString name="Iogonek">
          -586 358 callgsubr
          424 callsubr
          351 callgsubr
          1278 111 hstemhm
          -18 callgsubr
          207 -30 438 callsubr
          hintmask 11010100
          552 callgsubr
          hintmask 10111000
          -103 callsubr
          253 vlineto
          -129 217 callgsubr
          -118 -140 170 callsubr
          vvcurveto
          150 callsubr
          128 -54 134 84 -15 callgsubr
          -64 callsubr
          43 58 vhcurveto
          110 vlineto
          130 callsubr
          -46 -47 378 callgsubr
          505 callsubr
          hhcurveto
          171 callsubr
          249 callsubr
          35 86 76 18 callsubr
          112 112 55.99000549316406 hvcurveto
          hintmask 10110100
          558 callgsubr
          hlineto
          hintmask 11010100
          -56 callsubr
          vlineto
          hintmask 10110100
          -101 callgsubr
          hintmask 11010100
          310 callsubr
        </CharString>
        <CharString name="Itilde">
          -586 -74 callsubr
          161.989990234375 158 9 156.99000549316406 76 callsubr
          hintmask 00000000
          hintmask 01101100
          326 callgsubr
          215 callgsubr
          hintmask 01110100
          141 85 100 callsubr
          -32 -83 -93 -114 -45 1 callsubr
          445 callgsubr
          hhcurveto
          hintmask 01101100
          363 callgsubr
          -107 97 callgsubr
          -89 198 callgsubr
          412 callsubr
          266 callgsubr
          hhcurveto
          hintmask 10110100
          -128 -1741.990005493164 rmoveto
          hintmask 01110100
          118 callgsubr
          hintmask 10110100
          -56 callsubr
          vlineto
          hintmask 01110100
          -101 callgsubr
          hintmask 10110100
          310 callsubr
        </CharString>
        <CharString name="J">
          201 callsubr
          -12 -276 -50 callgsubr
        </CharString>
        <CharString name="Jcircumflex">
          201 callsubr
          35.97999572753906 227 callsubr
          85.02000427246094 41 callsubr
          -271.02000427246094 197 callsubr
          534 callgsubr
          -1988.990005493164 -50 callgsubr
        </CharString>
        <CharString name="K">
          76 0 -41 callsubr
          1291 111 541 callgsubr
          124 callsubr
          412.49998474121094 509.5 vstem
          -20 callgsubr
          endchar
        </CharString>
        <CharString name="Kcommaaccent">
          76 14 callsubr
          460 -41 callsubr
          1291 111 257 callsubr
          124 callsubr
          261.99998474121094 187 -36.5 509.5 hintmask 01111010
          -20 callgsubr
          hintmask 10111100
          -397 -560 207 callgsubr
          hintmask 01111100
          163 callsubr
          104 callgsubr
          4 callgsubr
          123 callsubr
          258 callgsubr
          rlineto
          hintmask 10111100
          63 callgsubr
          241 callsubr
          -16 callsubr
          hlineto
          endchar
        </CharString>
        <CharString name="L">
          -112 244 callgsubr
          vstem
          79 callgsubr
          endchar
        </CharString>
        <CharString name="Lacute">
          -112 0 12 callsubr
          1269 484 callgsubr
          265.99000549316406 236.99000549316406 vstem
          354 6 callgsubr
          -256 -1592 -94 callgsubr
          1098 vlineto
          269 callgsubr
          -73 callsubr
          endchar
        </CharString>
        <CharString name="Lcaron">
          -112 244 callgsubr
          452.99998474121094 192 vstem
          926.9900054931641 128 callsubr
          -828.9900054931641 -952 -94 callgsubr
          1098 vlineto
          269 callgsubr
          -73 callsubr
          endchar
        </CharString>
        <CharString name="Lcommaaccent">
          -113 14 callsubr
          460 12 callsubr
          1269 111 257 callsubr
          218 callsubr
          160.00999450683594 557 callsubr
          hintmask 01111000
          79 callgsubr
          hintmask 10111100
          588 -669 rmoveto
          28 -5 callsubr
          -49 callsubr
          -19 -89 hvcurveto
          hintmask 01111100
          389 callsubr
          402 callsubr
          85 callsubr
          324 callgsubr
          4 callgsubr
          1 258 callgsubr
          rlineto
          hintmask 10111100
          110 callsubr
        </CharString>
        <CharString name="Ldot">
          -100 0 12 callsubr
          573 294.99000549316406 401.00999450683594 111 355 callsubr
          323.99998474121094 441 callsubr
          vstem
          79 callgsubr
          728.9900054931641 741.9900054931641 rmoveto
          -82.97999572753906 217 callsubr
          -53 -1 callsubr
          114 callsubr
          77 62 508 callsubr
          230 callsubr
          151 callgsubr
          64 -97 -83 -82 150 callgsubr
          -92 vhcurveto
          endchar
        </CharString>
        <CharString name="Lslash">
          -113 244 callgsubr
          vstem
          46.97999572753906 646.9799957275391 rmoveto
          -123 vlineto
          219 93 rlineto
          -483.99000549316406 vlineto
          -168 -39 callgsubr
          1098 vlineto
          269 callgsubr
          462.99000549316406 -134 23 -122 -334.00999450683594 -505 69 callgsubr
          rlineto
          580 vlineto
          383 164 rlineto
          -13 callsubr
          vlineto
          -383 -168 rlineto
          546 vlineto
          193 -96 callgsubr
          -595 -32 callsubr
          165 -58 callgsubr
          -643.9900054931641 vlineto
          -219 498 callsubr
          endchar
        </CharString>
        <CharString name="M">
          -45 callgsubr
        </CharString>
        <CharString name="N">
          225 573 callsubr
          hstem
          182 callsubr
          vstem
          98 108.99000549316406 -91 callsubr
        </CharString>
        <CharString name="NULL">
          -1413 endchar
        </CharString>
        <CharString name="Nacute">
          227 0 121 1289.990005493164 484 callgsubr
          182 callsubr
          vstem
          718.9900054931641 99 callsubr
          -621 -1592 -91 callsubr
        </CharString>
        <CharString name="Ncaron">
          227 573 callsubr
          513 callgsubr
          43 -43 148 hstemhm
          182 callsubr
          hintmask 11101100
          508.99000549316406 54 callgsubr
          183 hlineto
          hintmask 11011100
          106 callgsubr
          -255.02000427246094 189 rlineto
          hintmask 11101100
          -91 -61 rlineto
          -410.99000549316406 -1843 -91 callsubr
        </CharString>
        <CharString name="Ncommaaccent">
          227 14 callsubr
          460 488 callgsubr
          hstemhm
          573 callgsubr
          408.00999450683594 187 263.010009765625 145 callsubr
          hintmask 01111010
          98 108.99000549316406 -90 callgsubr
          hintmask 10111110
          746.9900054931641 84 callgsubr
          78 241 callsubr
          -16 callsubr
          hlineto
          endchar
        </CharString>
        <CharString name="Ntilde">
          227 573 callsubr
          161.989990234375 296 callgsubr
          182 callsubr
          hintmask 00000000
          hintmask 11011100
          652.9799957275391 215 callgsubr
          hintmask 11101100
          141 85 100 callsubr
          -32.02000427246094 -83 -93 -114 -45 1 callsubr
          445 callgsubr
          hhcurveto
          hintmask 11011100
          363 callgsubr
          -107 276 callsubr
          266 callgsubr
          hhcurveto
          hintmask 11101100
          -554.9900054931641 -1741.990005493164 -91 callsubr
        </CharString>
        <CharString name="O">
          30 callsubr
          87 callsubr
          -34 callsubr
          750 -105 callgsubr
        </CharString>
        <CharString name="OE">
          699 -34 callgsubr
          114.97000122070312 -98.97999572753906 134 584 126.47999572753906 556.0200042724609 121.49000549316406 -91 572 callsubr
          hstemhm
          83 callsubr
          256 693 234 357.989990234375 130 hintmask 01110111
          1026.990005493164 hmoveto
          974.9900054931641 hlineto
          76 358.99000549316406 -127 36.99000549316406 -129.99000549316406 -250.99000549316406 -560 -22.020004272460938 rlineto
          598.0200042724609 vlineto
          421 callgsubr
          -6 30 -171 rlineto
          130 468.00999450683594 -130 hlineto
          -30 -164 -327.99000549316406 -7 rlineto
          566 vlineto
          483 -13 62 -191 rlineto
          127 hlineto
          198 callgsubr
          319 rlineto
          -879 hlineto
          hintmask 10101111
          -27 vlineto
          33 -76 -87 -67 callsubr
          -95 hhcurveto
          -395 -48 callsubr
          -296 -306 -481.02000427246094 vvcurveto
          -457.99000549316406 234 -316.97999572753906 430 7 vhcurveto
          -37 callsubr
          -21 callsubr
          97.00999450683594 25 86 47.99000549316406 rrcurveto
          hintmask 01110111
          -58.97999572753906 vlineto
          hintmask 10101111
          232.97999572753906 vmoveto
          -86 -65 -91 -48 -116 hhcurveto
          -267 1 -154 428 callgsubr
          371 vvcurveto
          443 158 235 261 126 87 -41 466 callgsubr
          61 vhcurveto
          -1084 vlineto
          endchar
        </CharString>
        <CharString name="Oacute">
          30 callsubr
          94.02000427246094 43 24.990005493164062 43 87 callsubr
          599.9799957275391 153 callsubr
          308 callsubr
          -68 rlineto
          128 callgsubr
          89 306 callsubr
          78 101 -153 -33 callsubr
          -534 -950.9900054931641 -105 callgsubr
        </CharString>
        <CharString name="Obreve">
          30 callsubr
          104 169 548 callsubr
          75.99998474121094 489 callgsubr
          67.989990234375 259.00999450683594 vstem
          401.97999572753906 298 callgsubr
          426 callsubr
          -139 225 40 callsubr
          -166 -46 100 59 -9 hvcurveto
          -3 509 callsubr
          -121 hlineto
          -2 102 callgsubr
          0 115 callgsubr
          115 callgsubr
          vvcurveto
          -336 -1205.990005493164 -105 callgsubr
        </CharString>
        <CharString name="Ocircumflex">
          30 callsubr
          87 callsubr
          380.99000549316406 1712.990005493164 rmoveto
          85 52 callsubr
          -183 hlineto
          -271 -300.00999450683594 rlineto
          -315 -962.9900054931641 -105 callgsubr
        </CharString>
        <CharString name="Odieresis">
          30 callsubr
          148.010009765625 183 callgsubr
          -34 callsubr
          259.99000549316406 28.999984741210938 280 220.010009765625 281 callgsubr
          19.009994506835938 259.00999450683594 hintmask 00000000
          hintmask 11111110
          354.97999572753906 122 callgsubr
          449 callgsubr
          47 callsubr
          -49 -42 callsubr
          500.02000427246094 140 callsubr
          -18 callsubr
          186 callgsubr
          -97 -37 callgsubr
          -42 callsubr
          hintmask 11110010
          -789.0099945068359 -1072.990005493164 -105 callgsubr
        </CharString>
        <CharString name="Ograve">
          30 callsubr
          94.02000427246094 43 24.990005493164062 43 87 callsubr
          425.97999572753906 37 callgsubr
          -1 hlineto
          -152 -127 rlineto
          -360 -1135 -105 callgsubr
        </CharString>
        <CharString name="Ohungarumlaut">
          30 callsubr
          98.010009765625 43 87 callsubr
          424 callsubr
          413 callsubr
          95 29 callsubr
          -805 -968.9900054931641 -105 callgsubr
        </CharString>
        <CharString name="Omacron">
          30 callsubr
          207 158 548 callsubr
          138.00999450683594 515 callgsubr
          119.99998474121094 259.00999450683594 vstem
          463.99000549316406 60 callgsubr
          -398 -1153.990005493164 -105 callgsubr
        </CharString>
        <CharString name="Oslash">
          30 callsubr
          144.010009765625 43 87 callsubr
          316.97999572753906 -183 155 callsubr
          243 callsubr
          19 callsubr
        </CharString>
        <CharString name="Oslashacute">
          30 callsubr
          94.02000427246094 43 281 callsubr
          43 -25 43 hstemhm
          -31 callsubr
          hintmask 11101110
          558 6 callgsubr
          -241 -1883.990005493164 155 callsubr
          hintmask 11010110
          243 callsubr
          hintmask 11101110
          19 callsubr
        </CharString>
        <CharString name="Otilde">
          30 callsubr
          145 296 callgsubr
          -31 callsubr
          hintmask 00000000
          hintmask 11011100
          569 1850.979995727539 rmoveto
          123 52 -167 131 callgsubr
          hhcurveto
          hintmask 11101100
          141 85 419 callsubr
          40.02000427246094 hvcurveto
          402 callgsubr
          64 361 callgsubr
          -22 221 callgsubr
          -83 -93 468 callsubr
          342 callgsubr
          527 callgsubr
          hintmask 11011100
          -153 322 callgsubr
          97 callgsubr
          -89 -27 hvcurveto
          -16 callgsubr
          -63 rlineto
          33 22 268 callgsubr
          86 91.02000427246094 hhcurveto
          hintmask 11101100
          -503.00999450683594 -1100.990005493164 -105 callgsubr
        </CharString>
        <CharString name="P">
          -53 callsubr
        </CharString>
        <CharString name="Q">
          89 -425 173.99000549316406 228.00999450683594 -18 callgsubr
          -103.98001098632812 43 1387.9700012207031 117 hstemhm
          512 callsubr
          260.00999450683594 827.9900054931641 259.00999450683594 hintmask 11011100
          512 callsubr
          750 rmoveto
          -462.00999450683594 226.02000427246094 -317.97999572753906 435 7 vhcurveto
          hintmask 10111100
          45 1 43 5 41.97999572753906 8 rrcurveto
          -32 265.02000427246094 109 callgsubr
          -384 355 hhcurveto
          218 callgsubr
          hlineto
          128 188 callsubr
          47 18 23 hvcurveto
          -33 110 rlineto
          -1 -13 -26 0 -16 hhcurveto
          -15 callsubr
          hlineto
          -213 -281 450 callgsubr
          169 callsubr
          -257.99000549316406 hvcurveto
          239 -18 callgsubr
          156 261.02000427246094 353 vvcurveto
          460 -219 302 -436 vhcurveto
          hintmask 11011100
          -395.02000427246094 -297 -307 -482 hvcurveto
          260.00999450683594 -13 callgsubr
          250.99000549316406 31 callsubr
          -163.99000549316406 -225.02000427246094 -250 -263 -151 255 401 vhcurveto
          endchar
        </CharString>
        <CharString name="R">
          184 callgsubr
          345 callsubr
          498 472 callsubr
          hintmask 11101100
          95.99000549316406 108.99000549316406 -70 callsubr
          hintmask 11011100
          56 callgsubr
          hintmask 11101100
          -29 callsubr
          endchar
        </CharString>
        <CharString name="Racute">
          184 callgsubr
          524 callgsubr
          124 callgsubr
          234 498 472 callsubr
          hintmask 11101111
          576.9799957275391 153 callsubr
          308 callsubr
          -68 rlineto
          128 callgsubr
          89 306 callsubr
          63 callgsubr
          101 -153 -33 callsubr
          -481 -1592 -70 callsubr
          hintmask 11011111
          56 callgsubr
          hintmask 11101111
          -29 callsubr
          endchar
        </CharString>
        <CharString name="Rcaron">
          184 callgsubr
          513 callgsubr
          43 -43 148 345 callsubr
          498 472 callsubr
          hintmask 11101011
          377 54 callgsubr
          146 callgsubr
          hlineto
          hintmask 11100111
          257 22 callsubr
          hintmask 11101011
          -90.99000549316406 -61 rlineto
          -281.00999450683594 -1843 -70 callsubr
          hintmask 11011011
          56 callgsubr
          hintmask 11101011
          -29 callsubr
          endchar
        </CharString>
        <CharString name="Rcommaaccent">
          27 14 callsubr
          460 203 callgsubr
          345 callsubr
          240.010009765625 187 70.989990234375 472 callsubr
          hintmask 0111101110000000
          95.99000549316406 108.99000549316406 -70 callsubr
          hintmask 0111011110000000
          56 callgsubr
          hintmask 0111101110000000
          -29 callsubr
          hintmask 1011101110000000
          37 -1344 rmoveto
          28 5 136 -3 callgsubr
          -54 59 -86 vhcurveto
          237 callsubr
          360 callsubr
          -49 callsubr
          -19 -89 hvcurveto
          hintmask 0111101110000000
          480 callgsubr
          24 -18 -38 vvcurveto
          -52 427 callsubr
          4 callgsubr
          1 258 callgsubr
          rlineto
          hintmask 1011101110000000
          110 callsubr
        </CharString>
        <CharString name="S">
          139 callgsubr
          hstem
          17 callgsubr
          143 callsubr
          527.0200042724609 144 callsubr
          vstem
          249 callgsubr
          69.97999572753906 -102 callgsubr
        </CharString>
        <CharString name="Sacute">
          139 callgsubr
          94.02000427246094 187 callsubr
          17 callgsubr
          143 callsubr
          527.0200042724609 144 callsubr
          vstem
          491.99000549316406 99 callsubr
          -375.00999450683594 -1631 -102 callgsubr
        </CharString>
        <CharString name="Scaron">
          139 callgsubr
          137 43 -43 148 550 callgsubr
          527.0200042724609 144 callsubr
          hintmask 11101100
          291.97999572753906 54 callgsubr
          183 hlineto
          hintmask 11011100
          106 callgsubr
          -255 189 rlineto
          hintmask 11101100
          401 callsubr
          -61 rlineto
          -175 -1882 -102 callgsubr
        </CharString>
        <CharString name="Scedilla">
          -198 61 callsubr
          307.00999450683594 -18 callgsubr
          1324.979995727539 117 hstem
          17 callgsubr
          143 callsubr
          217.00999450683594 320 callsubr
          131.02000427246094 144 callsubr
          vstem
          1131.990005493164 418 rmoveto
          258 callsubr
          -228 113.00999450683594 -192 95 vhcurveto
          -104 callsubr
          60 -5.9799957275390625 145 -73.99000549316406 208 -11 rlinecurve
          247 callgsubr
          476 callsubr
          27 -67 -59 133 callsubr
          110.99000549316406 -68 68 callgsubr
          -47 54 rrcurveto
          328 24.979995727539062 156 216 198 vvcurveto
          endchar
        </CharString>
        <CharString name="Scircumflex">
          139 callgsubr
          hstem
          17 callgsubr
          143 callsubr
          527.0200042724609 144 callsubr
          vstem
          273 119 callsubr
          531 callgsubr
          197 callsubr
          -156.02000427246094 -1643 -102 callgsubr
        </CharString>
        <CharString name="Scommaaccent">
          -198 14 callsubr
          437 -41 callsubr
          1324.989990234375 117 550 callgsubr
          221.00999450683594 187 119.010009765625 144 callsubr
          hintmask 01111110
          249 callgsubr
          69.97999572753906 -102 callsubr
          hintmask 10111110
          488.02000427246094 -629.9900054931641 rmoveto
          28 -5 callsubr
          -49 callsubr
          -19 -89 hvcurveto
          hintmask 01111110
          183 callsubr
          hintmask 10111110
          78 241 callsubr
          3 hlineto
          endchar
        </CharString>
        <CharString name="T">
          -2 0 295 callgsubr
          hstem
          363 callsubr
          241 vstem
          566 callsubr
          108.99000549316406 -47 callsubr
        </CharString>
        <CharString name="Tbar">
          35 0 121 532.9799957275391 127 617 124 hstem
          603.9900054931641 101 callgsubr
          vstem
          424 callsubr
          780.9799957275391 rmoveto
          -127 239 -520.9900054931641 vlineto
          -261 -39 callgsubr
          785 -99 callsubr
          -283.02000427246094 24 rlineto
          520.9900054931641 236.02000427246094 127 -236.02000427246094 622 vlineto
          320 -10 76 -418 rlineto
          143 hlineto
          -32 547 rlineto
          -1265.990005493164 hlineto
          -35 -547 rlineto
          145 hlineto
          75 418 333 10 rlineto
          -622 -239 vlineto
          endchar
        </CharString>
        <CharString name="Tcaron">
          -2 0 295 callgsubr
          154 43 -43 148 hstemhm
          363 callsubr
          241 hintmask 11101000
          377 54 callgsubr
          146 callgsubr
          hlineto
          hintmask 11011000
          257 22 callsubr
          hintmask 11101000
          -90.99000549316406 -61 rlineto
          -53 -1843 -47 callsubr
        </CharString>
        <CharString name="Thorn">
          -86 0 -46 callsubr
          216 113 615 121 -60.97001647949219 -78 callgsubr
          223 135 -107 107 hstemhm
          400 callsubr
          233 519 403 callsubr
          hintmask 11010111
          94.99000549316406 551 callgsubr
          617 169 callgsubr
          vlineto
          -216 24 rlineto
          212 vlineto
          259 callsubr
          58 71 -48 callsubr
          115 hhcurveto
          327 202 139 310 268 -169 101 callsubr
          -293.99000549316406 -116 142 callgsubr
          -12 -8 -98 hvcurveto
          hintmask 11011011
          223 vlineto
          hintmask 11010111
          174 28 rlineto
          380 callgsubr
          -571.9900054931641 322 callgsubr
          vlineto
          hintmask 11011011
          131 callgsubr
          -28 rlineto
          -1256 vlineto
          hintmask 11010111
          521 callsubr
          hintmask 11100111
          920 665 rmoveto
          -241 -129 -82.97999572753906 -168 -68 -72 -1 10 -82 vhcurveto
          588 vlineto
          49 7 69 -6 callgsubr
          76 2 rrcurveto
          239 6 86 -119 -178 vvcurveto
          endchar
        </CharString>
        <CharString name="U">
          -55 callsubr
          33 callsubr
          hintmask 10111000
          230 callgsubr
          642.9900054931641 -68 callgsubr
          hintmask 11011000
          766 vlineto
          hintmask 10111000
          148 -96 callgsubr
          -479 -32 callsubr
          hintmask 11011000
          -93 callsubr
          hintmask 10111000
          170 -96 callgsubr
          -558 -32 callsubr
          hintmask 11011000
          144 -92 callsubr
          rlineto
          hintmask 10111000
          211 callsubr
        </CharString>
        <CharString name="Uacute">
          -55 callsubr
          111.00999450683594 43 24.990005493164062 43 33 callsubr
          hintmask 10111110
          647.9900054931641 121 callsubr
          89 306 callsubr
          78 101 -153 -33 callsubr
          -464 -1058 -68 callgsubr
          hintmask 11011110
          766 vlineto
          hintmask 10111110
          148 -96 callgsubr
          -479 -32 callsubr
          hintmask 11011110
          -93 callsubr
          hintmask 10111110
          170 -96 callgsubr
          -558 -32 callsubr
          hintmask 11011110
          144 -92 callsubr
          rlineto
          hintmask 10111110
          211 callsubr
        </CharString>
        <CharString name="Ubreve">
          -55 callsubr
          120.989990234375 169 242 callgsubr
          144 callsubr
          20.999984741210938 489 callgsubr
          29 1 callsubr
          hintmask 00000000
          hintmask 10111111
          448.97999572753906 298 callgsubr
          120.02000427246094 -139 89 callgsubr
          40 callsubr
          -166 -46 100 59 103 callgsubr
          hvcurveto
          -3 509 callsubr
          -121 hlineto
          -2 102 callgsubr
          0 115 callgsubr
          115 callgsubr
          vvcurveto
          hintmask 11011001
          -264.99000549316406 -1312.990005493164 11 callgsubr
        </CharString>
        <CharString name="Ucircumflex">
          -55 callsubr
          33 callsubr
          hintmask 10111000
          427.99000549316406 -5 callgsubr
          -244 -1070 -68 callgsubr
          hintmask 11011000
          766 vlineto
          hintmask 10111000
          148 -96 callgsubr
          -479 -32 callsubr
          hintmask 11011000
          -93 callsubr
          hintmask 10111000
          170 -96 callgsubr
          -558 -32 callsubr
          hintmask 11011000
          144 -92 callsubr
          rlineto
          hintmask 10111000
          211 callsubr
        </CharString>
        <CharString name="Udieresis">
          -55 callsubr
          165 295.99000549316406 242 callgsubr
          144 callsubr
          -25.000015258789062 390 callgsubr
          -20.989990234375 1 callsubr
          hintmask 00000000
          hintmask 10110110
          402.97999572753906 122 callgsubr
          449 callgsubr
          -60.99000549316406 75 vhcurveto
          1 hlineto
          105 48.99000549316406 84 callsubr
          hintmask 11011001
          -718.9900054931641 -1180 11 callgsubr
        </CharString>
        <CharString name="Ugrave">
          -55 callsubr
          111.00999450683594 43 24.990005493164062 43 33 callsubr
          hintmask 10111110
          477 1885 rmoveto
          69 142 callgsubr
          422 callgsubr
          100 callgsubr
          -1 hlineto
          -151.99000549316406 -127 rlineto
          -293 -1242 -68 callgsubr
          hintmask 11011110
          766 vlineto
          hintmask 10111110
          148 -96 callgsubr
          -479 -32 callsubr
          hintmask 11011110
          -93 callsubr
          hintmask 10111110
          170 -96 callgsubr
          -558 -32 callsubr
          hintmask 11011110
          144 -92 callsubr
          rlineto
          hintmask 10111110
          211 callsubr
        </CharString>
        <CharString name="Uhungarumlaut">
          -55 callsubr
          115 43 33 callsubr
          hintmask 10111100
          412 413 callsubr
          95 29 callsubr
          -734 -1076 -68 callgsubr
          hintmask 11011100
          766 vlineto
          hintmask 10111100
          148 -96 callgsubr
          -479 -32 callsubr
          hintmask 11011100
          -93 callsubr
          hintmask 10111100
          170 -96 callgsubr
          -558 -32 callsubr
          hintmask 11011100
          144 -92 callsubr
          rlineto
          hintmask 10111100
          211 callsubr
        </CharString>
        <CharString name="Umacron">
          -55 callsubr
          223.989990234375 158 242 callgsubr
          144 callsubr
          83.00999450683594 515 callgsubr
          81.00999450683594 1 callsubr
          hintmask 10111110
          511 60 callgsubr
          -327 -1260.990005493164 -68 callgsubr
          hintmask 11011110
          766 vlineto
          hintmask 10111110
          148 -96 callgsubr
          -479 -32 callsubr
          hintmask 11011110
          -93 callsubr
          hintmask 10111110
          170 -96 callgsubr
          -558 -32 callsubr
          hintmask 11011110
          144 -92 callsubr
          rlineto
          hintmask 10111110
          211 callsubr
        </CharString>
        <CharString name="Uogonek">
          95 358 callgsubr
          349 -46 callsubr
          1281.979995727539 385 callsubr
          183.99000549316406 144 callsubr
          128.00999450683594 368 callgsubr
          398.00999450683594 1 callsubr
          hintmask 11011110
          230 callgsubr
          642.9900054931641 rmoveto
          -456.00999450683594 177.99000549316406 -202.97000122070312 414 8 9 0 1 282 callgsubr
          vhcurveto
          -130 -65 -116 -126.02000427246094 -109 vvcurveto
          -146 129 -50 172 callgsubr
          247 callsubr
          -15 callgsubr
          27 43 377 callgsubr
          vhcurveto
          109 486 callsubr
          -82 -65 399 callgsubr
          86 80 93 101.00999450683594 121 468 callgsubr
          hvcurveto
          567 callsubr
          71 12 callsubr
          193 339.99000549316406 vvcurveto
          hintmask 11101110
          766 vlineto
          hintmask 11011110
          148 -96 callgsubr
          -479 -32 callsubr
          hintmask 11101110
          -93 callsubr
          hintmask 11011110
          170 -96 callgsubr
          -558 -32 callsubr
          hintmask 11101110
          144 -92 callsubr
          rlineto
          hintmask 11011110
          211 callsubr
        </CharString>
        <CharString name="Uring">
          -55 callsubr
          -17 17 -17 99 310 123 callgsubr
          242 callgsubr
          144 callsubr
          31.999984741210938 161 346 159 36.010009765625 1 callsubr
          hintmask 0000000000000000
          hintmask 1001011111000000
          459.97999572753906 1762.979995727539 rmoveto
          150 callsubr
          -48 callsubr
          101 -116 232 hhcurveto
          1 hlineto
          557 callgsubr
          459 callsubr
          -107 -77 callsubr
          -215 hhcurveto
          -1 hlineto
          -174 -167 -86 -165 -3 hvcurveto
          hintmask 1000111111000000
          350 callsubr
          53 56 122 hvcurveto
          1 hlineto
          122.99000549316406 47 17 callsubr
          158 callsubr
          -93 -47 -53 97 callgsubr
          hvcurveto
          hintmask 1100011001000000
          -612 -961 134 callsubr
          hintmask 1010011011000000
          148 -96 callgsubr
          -479 -32 callsubr
          hintmask 1100011001000000
          -93 callsubr
          hintmask 1010011101000000
          170 -96 callgsubr
          vlineto
          hintmask 1010011001000000
          -558 -111 hlineto
          hintmask 1100011001000000
          345 callgsubr
        </CharString>
        <CharString name="Utilde">
          -55 callsubr
          161.989990234375 158 9 156.99000549316406 33 callsubr
          hintmask 00000000
          hintmask 10101110
          616 1850.979995727539 rmoveto
          367 callgsubr
          52.02000427246094 -167 131 callgsubr
          hhcurveto
          hintmask 10110110
          141 -19 callsubr
          100 callsubr
          221 callgsubr
          -83 -93 425 callgsubr
          -45 527 callgsubr
          hintmask 10101110
          -153 322 callgsubr
          97 callgsubr
          -89 198 callgsubr
          hvcurveto
          -15 callgsubr
          -63 rlineto
          33 341 callsubr
          268 callgsubr
          86 91.02000427246094 hhcurveto
          hintmask 11010110
          -432 -1207.990005493164 134 callsubr
          hintmask 10110110
          148 -96 callgsubr
          -479 -32 callsubr
          hintmask 11010110
          -93 callsubr
          hintmask 10110110
          170 -96 callgsubr
          -558 -32 callsubr
          hintmask 11010110
          345 callgsubr
        </CharString>
        <CharString name="V">
          -46 10 callgsubr
          43 -43 214.97999572753906 1211.000015258789 111 hstemhm
          -33.99000549316406 1441.990005493164 -462.00999450683594 462 hintmask 10110000
          93 1384.979995727539 rmoveto
          512.9900054931641 -1399.9700012207031 rlineto
          188 hlineto
          hintmask 01101000
          482 1399.9700012207031 260 callgsubr
          -96 callgsubr
          -462.00999450683594 -32 callsubr
          156 -92 callsubr
          -303 -948.9900054931641 -59 -236 -68 233 504 callgsubr
          953 184 -79 callgsubr
          -560.9900054931641 -32 callsubr
          hintmask 10110000
          126.99000549316406 -92 callsubr
          rlineto
          endchar
        </CharString>
        <CharString name="W">
          27 callgsubr
          164 callgsubr
          hintmask 10011000
          18 callsubr
          1384 7 callsubr
          hintmask 01010100
          -65 callgsubr
          hintmask 00111000
          12 callgsubr
          hintmask 10011000
          388 callgsubr
        </CharString>
        <CharString name="Wacute">
          125 callgsubr
          879.9799957275391 153 callsubr
          308 callsubr
          -68 rlineto
          123 callsubr
          hlineto
          89 306 callsubr
          63 callgsubr
          101 -153 -33 callsubr
          -790 -316.99000549316406 7 callsubr
          hintmask 01011101
          -65 callgsubr
          hintmask 00111110
          12 callgsubr
          hintmask 10011110
          388 callgsubr
        </CharString>
        <CharString name="Wcircumflex">
          27 callgsubr
          164 callgsubr
          hintmask 10011000
          660.9900054931641 -5 callgsubr
          -571 504 callgsubr
          7 callsubr
          hintmask 01010100
          -65 callgsubr
          hintmask 00111000
          12 callgsubr
          hintmask 10011000
          388 callgsubr
        </CharString>
        <CharString name="Wdieresis">
          27 callgsubr
          165 183 callgsubr
          634.9799957275391 390 callgsubr
          174 498.00999450683594 hintmask 10011111
          634.9799957275391 64 callgsubr
          -97 -49 -75 -85.00999450683594 hvcurveto
          -1045 -438.99000549316406 7 callsubr
          413 1393.990005493164 133 27 rlineto
          111 -498.00999450683594 -32 callsubr
          202.02000427246094 -27 -261 -946.0099945068359 rlineto
          hintmask 01011111
          -53 -294 -61 294 -274 947 192 -96 callgsubr
          -577.9900054931641 -32 callsubr
          140.99000549316406 -92 callsubr
          56.02000427246094 -175.99000549316406 -229 -771.0099945068359 rlineto
          hintmask 00111111
          12 callgsubr
          hintmask 10011111
          388 callgsubr
        </CharString>
        <CharString name="Wgrave">
          125 callgsubr
          705.9900054931641 1885 rmoveto
          69 142 callgsubr
          242.02000427246094 100 callgsubr
          -1 hlineto
          -152 -127 rlineto
          -616 -501 7 callsubr
          hintmask 01011101
          -65 callgsubr
          hintmask 00111110
          12 callgsubr
          hintmask 10011110
          388 callgsubr
        </CharString>
        <CharString name="X">
          -38 callgsubr
        </CharString>
        <CharString name="Y">
          -96 76 callgsubr
          121 callgsubr
          332.97999572753906 108.99000549316406 -83 callgsubr
        </CharString>
        <CharString name="Yacute">
          -96 0 120.5 1290.490005493164 111 111.00999450683594 43 24.990005493164062 43 121 callgsubr
          540 6 callgsubr
          -207.02000427246094 -1592 -83 callgsubr
        </CharString>
        <CharString name="Ycircumflex">
          -96 76 callgsubr
          121 callgsubr
          320.97999572753906 227 callsubr
          85.02000427246094 41 callsubr
          -271.00999450683594 197 callsubr
          12 -1604 -83 callgsubr
        </CharString>
        <CharString name="Ydieresis">
          -96 76 callgsubr
          165 183 callgsubr
          294.99000549316406 280 -23 242.99000549316406 0.0099945068359375 280 -200.010009765625 473 hintmask 00000000
          hintmask 11110100
          294.99000549316406 261 callgsubr
          -25 callgsubr
          402 callgsubr
          -1 callgsubr
          -87.99000549316406 hvcurveto
          -1 hlineto
          -97.00999450683594 -37 callgsubr
          -42 callsubr
          -462.00999450683594 -1714 214 callsubr
          hintmask 11101010
          -97 callgsubr
          hintmask 11110100
          -219.02000427246094 -24 rlineto
          endchar
        </CharString>
        <CharString name="Ygrave">
          -96 0 120.5 1290.490005493164 111 111.00999450683594 43 24.990005493164062 43 121 callgsubr
          366.97999572753906 1885 rmoveto
          476 callgsubr
          142 callgsubr
          242 -127 92 -29 rrcurveto
          1 hlineto
          528 callsubr
          68 -331 419 callgsubr
          -1 hlineto
          -152 -127 rlineto
          -34 -1776 -83 callgsubr
        </CharString>
        <CharString name="Z">
          -67 0 45 callsubr
          -96 -16 callgsubr
          hstemhm
          477 callgsubr
          1191.009994506836 hintmask 11101000
          477 callgsubr
          98 -47 callgsubr
          hintmask 11011000
          346 callsubr
          hintmask 11101000
          -59 callgsubr
          endchar
        </CharString>
        <CharString name="Zacute">
          -67 0 45 callsubr
          -96 -16 callgsubr
          105.010009765625 15 callsubr
          hstemhm
          477 callgsubr
          1191.009994506836 hintmask 11101110
          560 callsubr
          121 callsubr
          89 306 callsubr
          63 callgsubr
          101 -153 -33 callsubr
          -501 -1602.990005493164 -47 callgsubr
          hintmask 11011110
          346 callsubr
          hintmask 11101110
          -59 callgsubr
          endchar
        </CharString>
        <CharString name="Zcaron">
          -67 0 45 callsubr
          -96 -16 callgsubr
          109 callsubr
          43 -43 148 hstemhm
          477 callgsubr
          1191.009994506836 hintmask 11101010
          366 54 callgsubr
          146 callgsubr
          hlineto
          hintmask 11100110
          358 callsubr
          -85 59 -264 316 callsubr
          hintmask 11101010
          -91 -61 rlineto
          -301.02000427246094 -1853.990005493164 -47 callgsubr
          hintmask 11011010
          346 callsubr
          hintmask 11101010
          -59 callgsubr
          endchar
        </CharString>
        <CharString name="Zdotaccent">
          -67 0 45 callsubr
          -96 -16 callgsubr
          165.00001525878906 15 callgsubr
          514 callsubr
          286 hintmask 11100110
          514 callsubr
          -11 callsubr
          78 454 callsubr
          449 callgsubr
          68 88 hvcurveto
          hintmask 11101010
          71 -49 197 callgsubr
          -1 hlineto
          hintmask 11100110
          461 callgsubr
          -503.00999450683594 -1729.990005493164 -47 callgsubr
          hintmask 11010110
          346 callsubr
          hintmask 11100110
          -59 callgsubr
          endchar
        </CharString>
        <CharString name="a">
          -80 callsubr
          37 callsubr
          421.00999450683594 268 callsubr
          hintmask 01111100
          755 691 -100 callgsubr
          hintmask 10111100
          -100 callsubr
          hintmask 01111100
          -94 callsubr
        </CharString>
        <CharString name="aacute">
          -80 callsubr
          514.0299987792969 43 37 callsubr
          421.00999450683594 268 callsubr
          hintmask 01111110
          426.99000549316406 -31 callgsubr
          -330 -406 rlineto
          328.00999450683594 -717 -100 callgsubr
          hintmask 10111110
          -100 callsubr
          hintmask 01111110
          -94 callsubr
        </CharString>
        <CharString name="abreve">
          -80 callsubr
          190.00999450683594 471 callgsubr
          37 callsubr
          172 callsubr
          122 412 268 callsubr
          -191.99000549316406 118 hintmask 0000000000000000
          hintmask 0111101010000000
          221 58 callgsubr
          321 callsubr
          hlineto
          178 callsubr
          -1 -13 -2 -16 vhcurveto
          17 callsubr
          -10 356 callsubr
          472 callgsubr
          490 callgsubr
          -2.9900054931640625 88 callgsubr
          hintmask 0111110100000000
          534 -1002 -100 callgsubr
          hintmask 1011110100000000
          -100 callsubr
          hintmask 0111110100000000
          -94 callsubr
        </CharString>
        <CharString name="acircumflex">
          -80 callsubr
          37 callsubr
          421.00999450683594 268 callsubr
          hintmask 01111100
          185 487 callgsubr
          322 callsubr
          285 callgsubr
          114 callsubr
          58 -281.00999450683594 113 callgsubr
          -287.99000549316406 272 callgsubr
          570 -691 -100 callgsubr
          hintmask 10111100
          -100 callsubr
          hintmask 01111100
          -94 callsubr
        </CharString>
        <CharString name="acute">
          -732 1675 43 hstem
          203.97999572753906 490 vstem
          203.97999572753906 1408 rmoveto
          81.02000427246094 40 callgsubr
          470 callgsubr
          -406 rlineto
          endchar
        </CharString>
        <CharString name="acute.cap">
          -360 1633 187 callsubr
          503.99000549316406 485 vstem
          503.99000549316406 121 callsubr
          89 306 callsubr
          78 101 -153 -33 callsubr
          endchar
        </CharString>
        <CharString name="adieresis">
          -84 callgsubr
        </CharString>
        <CharString name="ae">
          -85 callgsubr
        </CharString>
        <CharString name="aeacute">
          351 387 callsubr
          -99 -77 callsubr
          307.99998474121094 164 -113.989990234375 121 507.00999450683594 43 hstemhm
          86 379 callsubr
          416 379 callsubr
          468.99998474121094 537 callgsubr
          hintmask 1100111110000000
          777.9900054931641 111 callgsubr
          69 -1213.009994506836 rmoveto
          -136 83 140.99000549316406 323 callgsubr
          199 hhcurveto
          167 172 74.99000549316406 66 callsubr
          75 hvcurveto
          453 callsubr
          -28 callgsubr
          -130 -47 -114 hhcurveto
          -181 505 callgsubr
          128 305 103 callgsubr
          hvcurveto
          694 hlineto
          10 47.99000549316406 2 63 85.02000427246094 vvcurveto
          264.99000549316406 237 callsubr
          554 callgsubr
          -150 -129 -55 221 callsubr
          -94 hvcurveto
          hintmask 1011011110000000
          149 callgsubr
          -52 159 callsubr
          43 -179.02000427246094 hhcurveto
          -192.99000549316406 -226.02000427246094 -112 -47 -53.99000549316406 hvcurveto
          -57 callgsubr
          159 callsubr
          rlineto
          42 114 callsubr
          127 10 callsubr
          150 hhcurveto
          176 42 -68 -179 hvcurveto
          -61 vlineto
          -339 -6 -325 -101 285 callgsubr
          vvcurveto
          -225 164 -98.97999572753906 557 callgsubr
          vhcurveto
          hintmask 1100111110000000
          209.02000427246094 -9 callgsubr
          126.99000549316406 91 64 hvcurveto
          151 485 rmoveto
          283 13 92 callgsubr
          84 136 hhcurveto
          204 callsubr
          377 callgsubr
          -126.00999450683594 -155 -49 callgsubr
          hvcurveto
          -25 -58 callsubr
          -34 -2 -27 vhcurveto
          -466 hlineto
          -195.02000427246094 -393.00999450683594 rmoveto
          -69 -40.97999572753906 -116.02000427246094 158 callsubr
          -122 hhcurveto
          -108 -82 473 callsubr
          150 hvcurveto
          hintmask 1010111110000000
          131 118 117 298 1 vhcurveto
          -2 vlineto
          281 callsubr
          -5 rlineto
          -3 vlineto
          hintmask 1100111110000000
          506 callsubr
          246 callsubr
          -95 30.990005493164062 -83 vhcurveto
          endchar
        </CharString>
        <CharString name="agrave">
          -80 callsubr
          514.0299987792969 43 37 callsubr
          421.00999450683594 268 callsubr
          hintmask 01111110
          209 548 callgsubr
          10 callsubr
          166 callgsubr
          0.9900054931640625 492 callgsubr
          -330 406 rlineto
          -1 hlineto
          228 callsubr
          -139 rlineto
          546 -984 -100 callgsubr
          hintmask 10111110
          -100 callsubr
          hintmask 01111110
          -94 callsubr
        </CharString>
        <CharString name="amacron">
          -80 callsubr
          267.00999450683594 158 37 callsubr
          146 callsubr
          447 callsubr
          -86.99000549316406 268 callsubr
          hintmask 00000000
          hintmask 01111010
          284 43 callsubr
          hintmask 01111101
          471 -895 -100 callgsubr
          hintmask 10111101
          -100 callsubr
          hintmask 01111101
          -94 callsubr
        </CharString>
        <CharString name="ampersand">
          138 -19 93 callgsubr
          -119.98001098632812 120.97000122070312 613.010009765625 123 597.989990234375 100 hstemhm
          121 365 callsubr
          -93 218 358.989990234375 381 callsubr
          167 167 hintmask 10111011
          1025.990005493164 841.9900054931641 rmoveto
          -123 vlineto
          307 callgsubr
          -25 218 callgsubr
          -115 130 callsubr
          -145 -78.99000549316406 -111 rlinecurve
          151 callgsubr
          43.99000549316406 -100.99000549316406 99 -177 204 -95 117 rlinecurve
          183 124.00999450683594 156 103 242 vvcurveto
          134 -114 150 -251 vhcurveto
          hintmask 10110111
          -235 -174 -163 -195 -151 84 -158 18 callsubr
          -116.99000549316406 hvcurveto
          hintmask 10111011
          -145 -82 339 callgsubr
          468 callsubr
          265 callsubr
          vvcurveto
          -254 215 159 callgsubr
          331 103 151 -64 callsubr
          88 112 vhcurveto
          95 -77 -34 callsubr
          221 callgsubr
          100 -58 callsubr
          rrcurveto
          35 87 78 callgsubr
          16.990005493164062 29 hvcurveto
          hintmask 01111011
          -15 callgsubr
          vlineto
          -105 9.020004272460938 7 callgsubr
          469 callgsubr
          -76 70 92 101 -1 callsubr
          168 -15 callsubr
          192 161 25 rcurveline
          123 vlineto
          hintmask 10111011
          -489 hlineto
          hintmask 10110111
          -411 -30 callgsubr
          rmoveto
          -63 306 callgsubr
          -88 115 154 vvcurveto
          133 82 508 callsubr
          105 150 22 -123 -70 6 callsubr
          -57 401 callsubr
          -151 -123 vhcurveto
          321.99000549316406 -688.9900054931641 rmoveto
          -52 -75 442 callsubr
          324 callgsubr
          -80.02000427246094 hhcurveto
          hintmask 10111011
          -230.99000549316406 -112.00999450683594 139.02000427246094 155 117 366 callsubr
          364 callgsubr
          -19 callsubr
          72 hvcurveto
          hintmask 10110111
          122 -146 188 -220 137 -128 rrcurveto
          endchar
        </CharString>
        <CharString name="ampersand.sc">
          -389 endchar
        </CharString>
</ttFont>
